<svg xmlns="http://www.w3.org/2000/svg" aria-hidden="true" style="position:absolute;width:0;height:0;overflow:hidden">
  <defs>
<symbol id="bathroom" viewBox="0 0 32 32" fill="#101828">
<path d="M30.4 17.067h-0.533v-11.2c0-2.667-2.133-4.8-4.8-4.8-2.361 0-4.058 1.75-4.248 4.315-1.239 0.234-2.152 1.302-2.152 2.618 0 0.32 0.213 0.533 0.533 0.533h4.267c0.32 0 0.533-0.213 0.533-0.533 0-1.302-0.892-2.361-2.11-2.61 0.159-1.695 1.177-3.256 3.177-3.256 2.080 0 3.733 1.653 3.733 3.733v11.2h-16.052c-0.241-1.23-1.305-2.133-2.615-2.133-0.533-0.64-1.28-1.067-2.133-1.067-1.013 0-1.92 0.587-2.347 1.44-0.427-0.213-0.907-0.373-1.387-0.373-1.31 0-2.374 0.903-2.615 2.133h-0.052c-0.907 0-1.6 0.693-1.6 1.6s0.693 1.6 1.6 1.6h0.641l1.439 5.707c0.427 1.653 1.92 2.827 3.627 2.827h0.427l-0.693 1.387c-0.16 0.267-0.053 0.587 0.213 0.693 0.053 0.053 0.16 0.053 0.213 0.053 0.213 0 0.373-0.107 0.48-0.267l0.933-1.867h14.8l0.907 1.813c0.107 0.213 0.267 0.32 0.48 0.32 0.107 0 0.16 0 0.213-0.107 0.213-0.107 0.32-0.427 0.213-0.693l-0.668-1.336c1.651-0.059 3.079-1.212 3.495-2.77l1.453-5.76h0.628c0.907 0 1.6-0.693 1.6-1.6s-0.693-1.6-1.6-1.6zM22.88 7.467h-3.040c0.213-0.64 0.853-1.067 1.547-1.067s1.28 0.427 1.493 1.067zM4.267 16c0.48 0 0.907 0.213 1.28 0.587 0.107 0.16 0.32 0.213 0.533 0.16s0.32-0.213 0.373-0.427c0.16-0.8 0.8-1.387 1.6-1.387 0.587 0 1.12 0.267 1.387 0.8 0.107 0.213 0.373 0.32 0.587 0.267 0.053 0 0.107 0 0.16 0 0.693 0 1.28 0.427 1.493 1.067h-8.907c0.213-0.64 0.8-1.067 1.493-1.067zM27.36 25.707c-0.32 1.173-1.387 2.027-2.613 2.027h-17.387c-1.227 0-2.293-0.853-2.613-2.027l-1.387-5.44h25.28l-1.28 5.44zM30.4 19.2h-28.8c-0.32 0-0.533-0.213-0.533-0.533s0.213-0.533 0.533-0.533h28.8c0.32 0 0.533 0.213 0.533 0.533s-0.213 0.533-0.533 0.533z"></path>
<path d="M19.2 10.933c0.32 0 0.533-0.213 0.533-0.533v-0.267c0-0.32-0.213-0.533-0.533-0.533s-0.533 0.213-0.533 0.533v0.267c0 0.32 0.213 0.533 0.533 0.533z"></path>
<path d="M19.2 13.387c0.32 0 0.533-0.267 0.533-0.533v-0.587c0-0.32-0.213-0.533-0.533-0.533s-0.533 0.213-0.533 0.533v0.587c0 0.32 0.213 0.533 0.533 0.533z"></path>
<path d="M19.2 15.467c0.32 0 0.533-0.213 0.533-0.533v-0.267c0-0.32-0.213-0.533-0.533-0.533s-0.533 0.213-0.533 0.533v0.267c0 0.32 0.213 0.533 0.533 0.533z"></path>
<path d="M21.333 10.933c0.32 0 0.533-0.213 0.533-0.533v-0.267c0-0.32-0.213-0.533-0.533-0.533s-0.533 0.213-0.533 0.533v0.267c0 0.32 0.213 0.533 0.533 0.533z"></path>
<path d="M20.8 12.853c0 0.32 0.213 0.533 0.533 0.533s0.533-0.267 0.533-0.533v-0.587c0-0.32-0.213-0.533-0.533-0.533s-0.533 0.213-0.533 0.533v0.587z"></path>
<path d="M20.8 14.933c0 0.32 0.213 0.533 0.533 0.533s0.533-0.213 0.533-0.533v-0.267c0-0.32-0.213-0.533-0.533-0.533s-0.533 0.213-0.533 0.533v0.267z"></path>
<path d="M23.467 10.933c0.32 0 0.533-0.213 0.533-0.533v-0.267c0-0.32-0.213-0.533-0.533-0.533s-0.533 0.213-0.533 0.533v0.267c-0 0.32 0.213 0.533 0.533 0.533z"></path>
<path d="M22.933 12.853c0 0.32 0.213 0.533 0.533 0.533s0.533-0.267 0.533-0.533v-0.587c0-0.32-0.213-0.533-0.533-0.533s-0.533 0.213-0.533 0.533v0.587z"></path>
<path d="M22.933 14.933c0 0.32 0.213 0.533 0.533 0.533s0.533-0.213 0.533-0.533v-0.267c0-0.32-0.213-0.533-0.533-0.533s-0.533 0.213-0.533 0.533v0.267z"></path>
</symbol>
  <symbol id="TV" viewBox="0 0 32 32">
  <path d="M24 26H8C5.784 26 4 24.216 4 22V12C4 9.784 5.784 8 8 8H24C26.216 8 28 9.784 28 12V22C28 24.216 26.216 26 24 26Z" stroke="#101828" stroke-width="1.8" stroke-linecap="round" stroke-linejoin="round" />
  <path d="M12 30H20" stroke="#101828" stroke-width="1.8" stroke-linecap="round" stroke-linejoin="round" />
  <path d="M16 8L22 2" stroke="#101828" stroke-width="1.8" stroke-linecap="round" stroke-linejoin="round" />
  <path d="M16 8L10 2" stroke="#101828" stroke-width="1.8" stroke-linecap="round" stroke-linejoin="round" />
</symbol>
  <symbol id="microwave"  viewBox="0 0 20 20">
  <path d="M18.5714 3.57141H1.42852C1.23908 3.57141 1.0574 3.64667 0.923443 3.78062C0.789488 3.91458 0.714233 4.09626 0.714233 4.2857V15.7143C0.714233 15.9037 0.789488 16.0854 0.923443 16.2193C1.0574 16.3533 1.23908 16.4286 1.42852 16.4286H18.5714C18.7608 16.4286 18.9425 16.3533 19.0765 16.2193C19.2104 16.0854 19.2857 15.9037 19.2857 15.7143V4.2857C19.2857 4.09626 19.2104 3.91458 19.0765 3.78062C18.9425 3.64667 18.7608 3.57141 18.5714 3.57141Z" stroke="#101828" stroke-width="1.4" stroke-linecap="round" stroke-linejoin="round" />
  <path d="M15.7143 7.14281H16.4286M15.7143 9.99996H16.4286M12.1428 6.42853H4.2857C4.09626 6.42853 3.91458 6.50378 3.78062 6.63774C3.64667 6.77169 3.57141 6.95337 3.57141 7.14281V12.8571C3.57141 13.0465 3.64667 13.2282 3.78062 13.3622C3.91458 13.4961 4.09626 13.5714 4.2857 13.5714H12.1428C12.3323 13.5714 12.514 13.4961 12.6479 13.3622C12.7819 13.2282 12.8571 13.0465 12.8571 12.8571V7.14281C12.8571 6.95337 12.7819 6.77169 12.6479 6.63774C12.514 6.50378 12.3323 6.42853 12.1428 6.42853Z" stroke="#101828" stroke-width="1.4" stroke-linecap="round" stroke-linejoin="round" />
</symbol>
  <symbol id="shower"  viewBox="0 0 20 20">
  <path d="M3.33337 3.33331L5.41671 5.41665M11.25 5.41665C10.4738 4.65596 9.42879 4.23234 8.342 4.23783C7.25522 4.24332 6.21451 4.67748 5.44602 5.44596C4.67754 6.21444 4.24338 7.25516 4.23789 8.34194C4.2324 9.42873 4.65603 10.4738 5.41671 11.25M12.5 4.16665L4.16671 12.5M11.6667 14.1666V14.175M8.33337 13.3333V13.3416M10.8334 10.8333V10.8416M13.3334 8.33331V8.34165M9.16671 16.6666V16.675M14.1667 11.6666V11.675M16.6667 9.16665V9.17498" stroke="#101828" stroke-width="1.6" stroke-linecap="round" stroke-linejoin="round" />
</symbol>
  <symbol id="freezer" viewBox="0 0 20 20">
  <path d="M14.625 1.875H5.37915C4.68879 1.875 4.12915 2.43464 4.12915 3.125V15.8667C4.12915 16.557 4.68879 17.1167 5.37915 17.1167H14.625C15.3153 17.1167 15.875 16.557 15.875 15.8667V3.125C15.875 2.43464 15.3153 1.875 14.625 1.875Z" stroke="#101828" stroke-width="1.3" stroke-linecap="round" stroke-linejoin="round" />
  <path d="M4.12915 8.20416H15.8708M6.44582 6.60416V4.07916M6.44582 12.15V9.625M5.26665 17.1167V17.5542C5.26665 17.7048 5.32622 17.8494 5.43237 17.9563C5.53852 18.0633 5.68265 18.1239 5.83332 18.125H6.86248C7.01388 18.125 7.15907 18.0649 7.26612 17.9578C7.37318 17.8507 7.43332 17.7056 7.43332 17.5542V17.1167M12.5625 17.1167V17.5542C12.5625 17.7056 12.6226 17.8507 12.7297 17.9578C12.8367 18.0649 12.9819 18.125 13.1333 18.125H14.1667C14.318 18.125 14.4632 18.0649 14.5703 17.9578C14.6773 17.8507 14.7375 17.7056 14.7375 17.5542V17.1167" stroke="#101828" stroke-width="1.3" stroke-linecap="round" stroke-linejoin="round" />
</symbol>
  <symbol id="gas" viewBox="0 0 20 20">
  <path d="M15.6699 8.74467C15.44 8.46132 15.16 8.21576 14.9001 7.9702C14.2302 7.40352 13.4703 6.99739 12.8305 6.40238C11.3407 5.02345 11.0108 2.74727 11.9606 1C11.0108 1.21723 10.1809 1.70835 9.47107 2.2467C6.88155 4.2112 5.86173 7.67741 7.08151 10.6525C7.1215 10.7469 7.16149 10.8414 7.16149 10.9642C7.16149 11.172 7.01152 11.3609 6.81156 11.4364C6.5816 11.5309 6.34165 11.4742 6.15168 11.3231C6.09459 11.2785 6.04708 11.224 6.01171 11.1625C4.88191 9.81192 4.70194 7.87575 5.46181 6.32682C3.79211 7.6113 2.88228 9.78358 3.01225 11.8331C3.07224 12.3053 3.13223 12.7776 3.3022 13.2498C3.44218 13.8165 3.71213 14.3832 4.01207 14.8837C5.09187 16.5177 6.96153 17.6888 8.97116 17.9249C11.1108 18.1799 13.4004 17.8116 15.0401 16.4138C16.8697 14.846 17.5096 12.3337 16.5698 10.1803L16.4398 9.9347C16.2298 9.50024 15.6699 8.74467 15.6699 8.74467ZM12.5105 14.6948C12.2306 14.9215 11.7707 15.1671 11.4107 15.2615C10.2909 15.6393 9.17113 15.1104 8.51125 14.4871C9.70103 14.2226 10.4109 13.3915 10.6209 12.5509C10.7908 11.7953 10.4709 11.172 10.3409 10.4447C10.2209 9.7458 10.2409 9.15079 10.5109 8.4991C10.7008 8.858 10.9008 9.2169 11.1408 9.50024C11.9106 10.4447 13.1204 10.8603 13.3804 12.1448C13.4203 12.277 13.4403 12.4092 13.4403 12.5509C13.4703 13.3254 13.1104 14.1754 12.5105 14.6948Z" fill="#101828" />
</symbol>
  <symbol id="water" viewBox="0 0 20 20">
  <path d="M15.625 12.5C15.625 15.952 13.452 18.125 10 18.125C6.54805 18.125 4.375 15.952 4.375 12.5C4.375 8.79571 8.40742 3.79492 9.64414 2.34844C9.68815 2.29705 9.74276 2.25579 9.80422 2.2275C9.86568 2.19922 9.93254 2.18457 10.0002 2.18457C10.0679 2.18457 10.1347 2.19922 10.1962 2.2275C10.2576 2.25579 10.3122 2.29705 10.3562 2.34844C11.5926 3.79492 15.625 8.79571 15.625 12.5Z" stroke="black" stroke-width="1.5" stroke-miterlimit="10" />
  <path d="M13.4375 12.8125C13.4375 13.5584 13.1412 14.2738 12.6137 14.8012C12.0863 15.3287 11.3709 15.625 10.625 15.625" stroke="black" stroke-width="1.5" stroke-linecap="round" stroke-linejoin="round" />
</symbol>
  <symbol id="toilet" viewBox="0 0 20 20">
  <g clip-path="url(#clip0_45_574)">
    <path d="M15 2.5C16.2116 2.5 17.0433 3.52917 17.525 4.57083C18.0008 5.60417 18.29 6.9525 18.3291 8.41167L18.3333 8.75V16.6667C18.3334 16.779 18.3108 16.8901 18.2668 16.9935C18.2229 17.0968 18.1585 17.1902 18.0776 17.268C17.9966 17.3459 17.9008 17.4065 17.7958 17.4464C17.6908 17.4863 17.5788 17.5045 17.4666 17.5L17.3633 17.4883L15 17.095L12.6366 17.4883C12.5366 17.505 12.4344 17.5033 12.335 17.4833L12.2366 17.4575L9.99996 16.7117L7.76329 17.4575C7.64597 17.4966 7.52143 17.5091 7.39869 17.4941C7.27594 17.479 7.15808 17.4369 7.05365 17.3707C6.94922 17.3045 6.86083 17.2158 6.7949 17.1112C6.72897 17.0066 6.68714 16.8886 6.67246 16.7658L6.66663 16.6667V14.2275C6.22413 14.6858 5.66996 15 4.99996 15C3.78829 15 2.95663 13.9708 2.47496 12.9292C1.96329 11.8167 1.66663 10.3383 1.66663 8.75C1.66663 7.16167 1.96246 5.68333 2.47496 4.57083C2.93413 3.57583 3.71329 2.59333 4.83746 2.50667L4.99996 2.5H15ZM15 4.16667H7.31829C7.39329 4.3 7.46163 4.435 7.52413 4.57083C8.03746 5.68333 8.33329 7.16167 8.33329 8.75V15.5108L9.73663 15.0425C9.90757 14.9856 10.0924 14.9856 10.2633 15.0425L12.5675 15.8108L14.8633 15.4275C14.9533 15.4125 15.0466 15.4125 15.1366 15.4275L16.6666 15.6833V8.75C16.6666 7.34667 16.4025 6.11667 16.0108 5.26917C15.5875 4.35 15.1691 4.16667 15 4.16667ZM4.99996 4.16667C4.83079 4.16667 4.41246 4.35 3.98913 5.26917C3.59746 6.11667 3.33329 7.34667 3.33329 8.75C3.33329 10.1533 3.59746 11.3833 3.98913 12.2308C4.41246 13.15 4.83079 13.3333 4.99996 13.3333C5.16913 13.3333 5.58746 13.15 6.01079 12.2308C6.40246 11.3833 6.66663 10.1533 6.66663 8.75C6.66663 7.34667 6.40246 6.11667 6.01079 5.26917C5.58746 4.35 5.16913 4.16667 4.99996 4.16667ZM4.99996 7.08333C5.45996 7.08333 5.83329 7.82917 5.83329 8.75C5.83329 9.67083 5.45996 10.4167 4.99996 10.4167C4.53996 10.4167 4.16663 9.67083 4.16663 8.75C4.16663 7.82917 4.53996 7.08333 4.99996 7.08333Z" fill="#101828" />
  </g>
  <defs>
    <clipPath id="clip0_45_574">
      <rect width="20" height="20" fill="white" />
    </clipPath>
  </defs>
</symbol>
  <symbol id="hob" viewBox="0 0 20 20">
  <path d="M7.49984 4.16669H17.4998C17.7209 4.16669 17.9328 4.25448 18.0891 4.41076C18.2454 4.56705 18.3332 4.77901 18.3332 5.00002V15.8334C18.3332 16.0544 18.2454 16.2663 18.0891 16.4226C17.9328 16.5789 17.7209 16.6667 17.4998 16.6667H7.49984M7.49984 4.16669H2.49984C2.27882 4.16669 2.06686 4.25448 1.91058 4.41076C1.7543 4.56705 1.6665 4.77901 1.6665 5.00002V15.8334C1.6665 16.0544 1.7543 16.2663 1.91058 16.4226C2.06686 16.5789 2.27882 16.6667 2.49984 16.6667H7.49984M7.49984 4.16669V16.6667" stroke="#101828" stroke-width="1.5" />
  <path d="M4.58301 7.08335V8.75002M15.4163 6.66669L10.4163 13.75" stroke="#101828" stroke-width="1.5" stroke-linecap="round" stroke-linejoin="round" />
  <path d="M5.41667 11.25C5.41667 10.7898 5.04357 10.4167 4.58333 10.4167C4.1231 10.4167 3.75 10.7898 3.75 11.25C3.75 11.7103 4.1231 12.0834 4.58333 12.0834C5.04357 12.0834 5.41667 11.7103 5.41667 11.25Z" fill="#101828" />
  <path d="M5.41667 13.75C5.41667 13.2898 5.04357 12.9167 4.58333 12.9167C4.1231 12.9167 3.75 13.2898 3.75 13.75C3.75 14.2103 4.1231 14.5834 4.58333 14.5834C5.04357 14.5834 5.41667 14.2103 5.41667 13.75Z" fill="#101828" />
</symbol>
  <symbol id="radio" viewBox="0 0 20 20">
  <path d="M1.6665 11.6667C1.6665 8.52417 1.6665 6.9525 2.64317 5.97667C3.619 5 5.19067 5 8.33317 5H11.6665C14.809 5 16.3807 5 17.3565 5.97667C18.3332 6.9525 18.3332 8.52417 18.3332 11.6667C18.3332 14.8092 18.3332 16.3808 17.3565 17.3567C16.3807 18.3333 14.809 18.3333 11.6665 18.3333H8.33317C5.19067 18.3333 3.619 18.3333 2.64317 17.3567C1.6665 16.3808 1.6665 14.8092 1.6665 11.6667Z" stroke="#101828" stroke-width="1.3" />
  <path d="M4.1665 9.16667C4.1665 8.72464 4.3421 8.30072 4.65466 7.98816C4.96722 7.6756 5.39114 7.5 5.83317 7.5H14.1665C14.6085 7.5 15.0325 7.6756 15.345 7.98816C15.6576 8.30072 15.8332 8.72464 15.8332 9.16667C15.8332 9.60869 15.6576 10.0326 15.345 10.3452C15.0325 10.6577 14.6085 10.8333 14.1665 10.8333H5.83317C5.39114 10.8333 4.96722 10.6577 4.65466 10.3452C4.3421 10.0326 4.1665 9.60869 4.1665 9.16667ZM7.49984 14.1667C7.49984 14.4982 7.36814 14.8161 7.13372 15.0505C6.8993 15.285 6.58136 15.4167 6.24984 15.4167C5.91832 15.4167 5.60037 15.285 5.36595 15.0505C5.13153 14.8161 4.99984 14.4982 4.99984 14.1667C4.99984 13.8351 5.13153 13.5172 5.36595 13.2828C5.60037 13.0484 5.91832 12.9167 6.24984 12.9167C6.58136 12.9167 6.8993 13.0484 7.13372 13.2828C7.36814 13.5172 7.49984 13.8351 7.49984 14.1667Z" stroke="#101828" stroke-width="1.3" />
  <path d="M12.4998 9.58332V10.8333M10.8332 14.1667H14.9998M5.4165 4.99999L12.4998 1.66666" stroke="#101828" stroke-width="1.3" stroke-linecap="round" />
</symbol>
  <symbol id="CD" viewBox="0 0 20 20">
  <path d="M10 17.5C14.1421 17.5 17.5 14.1421 17.5 10C17.5 5.85786 14.1421 2.5 10 2.5C5.85786 2.5 2.5 5.85786 2.5 10C2.5 14.1421 5.85786 17.5 10 17.5Z" stroke="#101828" stroke-width="1.5" />
  <path d="M5.4165 9.99999C5.4165 7.46874 7.46859 5.41666 9.99984 5.41666" stroke="#101828" stroke-width="1.5" stroke-linecap="round" />
  <path d="M9.99984 12.0833C11.1504 12.0833 12.0832 11.1506 12.0832 9.99999C12.0832 8.8494 11.1504 7.91666 9.99984 7.91666C8.84924 7.91666 7.9165 8.8494 7.9165 9.99999C7.9165 11.1506 8.84924 12.0833 9.99984 12.0833Z" stroke="#101828" stroke-width="1.5" />
</symbol>
  <symbol id="airConditioner" viewBox="0 0 20 20">
  <g clip-path="url(#clip0_45_422)">
    <path d="M17.8572 0.714294H2.14293C1.76405 0.714294 1.40068 0.864804 1.13277 1.13271C0.864865 1.40062 0.714355 1.76399 0.714355 2.14287V9.28572C0.714355 9.6646 0.864865 10.028 1.13277 10.2959C1.40068 10.5638 1.76405 10.7143 2.14293 10.7143H17.8572C18.2361 10.7143 18.5995 10.5638 18.8674 10.2959C19.1353 10.028 19.2858 9.6646 19.2858 9.28572V2.14287C19.2858 1.76399 19.1353 1.40062 18.8674 1.13271C18.5995 0.864804 18.2361 0.714294 17.8572 0.714294Z" stroke="#101828" stroke-width="1.5" stroke-linecap="round" stroke-linejoin="round" />
    <path d="M15.7141 10.7143V7.85716C15.7141 7.47828 15.5636 7.11492 15.2957 6.84701C15.0278 6.5791 14.6645 6.42859 14.2856 6.42859H5.71415C5.33527 6.42859 4.9719 6.5791 4.70399 6.84701C4.43608 7.11492 4.28557 7.47828 4.28557 7.85716V10.7143M3.57129 17.8572H3.71415C4.24458 17.8572 4.75329 17.6464 5.12836 17.2714C5.50343 16.8963 5.71415 16.3876 5.71415 15.8572V14.2857M16.4284 17.8572H16.2856C15.7551 17.8572 15.2464 17.6464 14.8714 17.2714C14.4963 16.8963 14.2856 16.3876 14.2856 15.8572V14.2857M9.99986 19.2857V14.2857" stroke="#101828" stroke-width="1.5" stroke-linecap="round" stroke-linejoin="round" />
  </g>
  <defs>
    <clipPath id="clip0_45_422">
      <rect width="20" height="20" fill="white" />
    </clipPath>
  </defs>
</symbol>
  <symbol id="calendar" viewBox="0 0 20 20">
  <path d="M15.8333 3.33333H4.16667C3.24619 3.33333 2.5 4.07952 2.5 4.99999V16.6667C2.5 17.5871 3.24619 18.3333 4.16667 18.3333H15.8333C16.7538 18.3333 17.5 17.5871 17.5 16.6667V4.99999C17.5 4.07952 16.7538 3.33333 15.8333 3.33333Z" stroke="#101828" stroke-width="1.5" stroke-linecap="round" stroke-linejoin="round" />
  <path d="M13.3333 1.66667V5.00001" stroke="#101828" stroke-width="1.5" stroke-linecap="round" stroke-linejoin="round" />
  <path d="M6.66675 1.66667V5.00001" stroke="#101828" stroke-width="1.5" stroke-linecap="round" stroke-linejoin="round" />
  <path d="M2.5 8.33333H17.5" stroke="#101828" stroke-width="1.5" stroke-linecap="round" stroke-linejoin="round" />
</symbol>
<symbol id="close" viewBox="0 0 32 32">
  <path d="M24 8L8 24"  stroke-width="3" stroke-linecap="round" stroke-linejoin="round" />
  <path d="M8 8L24 24" stroke-width="3" stroke-linecap="round" stroke-linejoin="round" />
</symbol>
  <symbol id="heart" viewBox="0 0 24 24">
  <path d="M20.8401 4.60999C20.3294 4.099 19.7229 3.69364 19.0555 3.41708C18.388 3.14052 17.6726 2.99817 16.9501 2.99817C16.2276 2.99817 15.5122 3.14052 14.8448 3.41708C14.1773 3.69364 13.5709 4.099 13.0601 4.60999L12.0001 5.66999L10.9401 4.60999C9.90842 3.5783 8.50915 2.9987 7.05012 2.9987C5.59108 2.9987 4.19181 3.5783 3.16012 4.60999C2.12843 5.64169 1.54883 7.04096 1.54883 8.49999C1.54883 9.95903 2.12843 11.3583 3.16012 12.39L4.22012 13.45L12.0001 21.23L19.7801 13.45L20.8401 12.39C21.3511 11.8792 21.7565 11.2728 22.033 10.6053C22.3096 9.93789 22.4519 9.22248 22.4519 8.49999C22.4519 7.77751 22.3096 7.0621 22.033 6.39464C21.7565 5.72718 21.3511 5.12075 20.8401 4.60999Z" stroke-width="2.3" stroke-linecap="round" stroke-linejoin="round" />
</symbol>
<symbol id="location" viewBox="0 0 18 20">
  <g clip-path="url(#clip0_46_657)">
    <path d="M16.5 8.33334C16.5 14.1667 9 19.1667 9 19.1667C9 19.1667 1.5 14.1667 1.5 8.33334C1.5 6.34422 2.29018 4.43657 3.6967 3.03004C5.10322 1.62352 7.01088 0.833344 9 0.833344C10.9891 0.833344 12.8968 1.62352 14.3033 3.03004C15.7098 4.43657 16.5 6.34422 16.5 8.33334Z" stroke="#101828" stroke-width="1.5" stroke-linecap="round" stroke-linejoin="round" />
    <path d="M9 10.8333C10.3807 10.8333 11.5 9.71406 11.5 8.33334C11.5 6.95263 10.3807 5.83334 9 5.83334C7.61929 5.83334 6.5 6.95263 6.5 8.33334C6.5 9.71406 7.61929 10.8333 9 10.8333Z" stroke="#101828" stroke-width="1.5" stroke-linecap="round" stroke-linejoin="round" />
  </g>
  <defs>
    <clipPath id="clip0_46_657">
      <rect width="18" height="20" fill="white" />
    </clipPath>
  </defs>
</symbol>
<symbol id="star" viewBox="0 0 34 32">
<path stroke-width="2.56" stroke-miterlimit="4" stroke-linecap="butt" stroke-linejoin="miter" d="M13.227 10.020l3.84-7.277 3.84 7.277c0.34 0.644 0.959 1.093 1.675 1.217l8.108 1.403-5.735 5.9c-0.507 0.522-0.744 1.249-0.64 1.97l1.171 8.144-7.384-3.631c-0.653-0.321-1.418-0.321-2.071 0l-7.384 3.631 1.171-8.144c0.104-0.72-0.133-1.448-0.64-1.97l-5.735-5.9 8.108-1.403c0.717-0.124 1.336-0.574 1.675-1.217z"></path>
</symbol>
<symbol id="adults" viewBox="0 0 20 20">
  <path d="M5.66666 15.0833H2.91666C2.74999 15.0833 2.66666 15 2.58333 14.9167C2.49999 14.8333 2.41666 14.6667 2.49999 14.5C2.99999 13.0833 4.24999 12.25 5.66666 12.25C7.41666 12.25 8.83333 10.75 8.83333 9.00001C8.83333 7.25001 7.41666 5.58334 5.66666 5.58334C3.91666 5.58334 2.49999 7.08334 2.49999 8.91668C2.49999 9.75001 2.83333 10.5833 3.33333 11.1667C2.24999 11.75 1.41666 12.6667 0.91666 13.9167C0.749994 14.5 0.833327 15.25 1.24999 15.8333C1.66666 16.4167 2.24999 16.75 2.91666 16.75H5.66666C6.16666 16.75 6.49999 16.4167 6.49999 15.9167C6.49999 15.4167 6.16666 15.0833 5.66666 15.0833ZM4.16666 8.91668C4.16666 8.00001 4.83333 7.33334 5.66666 7.33334C6.49999 7.33334 7.16666 8.08334 7.16666 8.91668C7.16666 9.83334 6.49999 10.5 5.66666 10.5C4.83333 10.5 4.16666 9.75001 4.16666 8.91668Z" fill="#101828" />
  <path d="M19.0833 13.4167C18.5 11.8333 17.3333 10.6667 16 10C16.75 9.33335 17.1666 8.33335 17.1666 7.16668C17.1666 5.00002 15.5 3.25002 13.5 3.25002C11.5 3.25002 9.83331 5.00002 9.83331 7.16668C9.83331 8.25002 10.25 9.25002 11 10C9.66664 10.6667 8.49998 11.8333 7.91664 13.4167C7.49998 14.1667 7.66664 15 8.08331 15.6667C8.49998 16.3333 9.24998 16.6667 9.99998 16.6667H16.9166C17.6666 16.6667 18.4166 16.25 18.8333 15.6667C19.3333 15 19.4166 14.1667 19.0833 13.4167ZM11.4166 7.25001C11.4166 6.00001 12.3333 5.00002 13.4166 5.00002C14.5 5.00002 15.4166 6.00001 15.4166 7.25001C15.4166 8.50001 14.5 9.50002 13.4166 9.50002C12.3333 9.50002 11.4166 8.41668 11.4166 7.25001ZM17.4166 14.75C17.3333 14.8333 17.1666 15.0833 16.9166 15.0833H9.99998C9.66664 15.0833 9.49998 14.8333 9.49998 14.75C9.41664 14.6667 9.24998 14.3333 9.41665 14C10.0833 12.25 11.75 11.0833 13.5 11.0833C15.25 11.0833 16.9166 12.25 17.5833 14C17.6666 14.3333 17.5 14.6667 17.4166 14.75Z" fill="#101828" />
</symbol>
<symbol id="transmission" viewBox="0 0 20 20">
  <path d="M14.1667 9.16667H15.4167C15.7482 9.16667 16.0661 9.03497 16.3006 8.80055C16.535 8.56613 16.6667 8.24819 16.6667 7.91667C16.6667 7.58515 16.535 7.2672 16.3006 7.03278C16.0661 6.79836 15.7482 6.66667 15.4167 6.66667H14.1667V10.8333M14.1667 14.1667V17.5H15C15.442 17.5 15.866 17.3244 16.1785 17.0118C16.4911 16.6993 16.6667 16.2754 16.6667 15.8333C16.6667 15.3913 16.4911 14.9674 16.1785 14.6548C15.866 14.3423 15.442 14.1667 15 14.1667H14.1667ZM2.5 4.16667C2.5 4.60869 2.67559 5.03262 2.98816 5.34518C3.30072 5.65774 3.72464 5.83333 4.16667 5.83333C4.60869 5.83333 5.03262 5.65774 5.34518 5.34518C5.65774 5.03262 5.83333 4.60869 5.83333 4.16667C5.83333 3.72464 5.65774 3.30072 5.34518 2.98816C5.03262 2.67559 4.60869 2.5 4.16667 2.5C3.72464 2.5 3.30072 2.67559 2.98816 2.98816C2.67559 3.30072 2.5 3.72464 2.5 4.16667Z" stroke="#101828" stroke-width="1.5" stroke-linecap="round" stroke-linejoin="round" />
  <path d="M4.16675 5.83333V8.33333C4.16675 8.55434 4.25455 8.7663 4.41083 8.92258C4.56711 9.07886 4.77907 9.16666 5.00008 9.16666H7.50008M7.50008 9.16666V15C7.50008 15.221 7.58788 15.433 7.74416 15.5893C7.90044 15.7455 8.1124 15.8333 8.33341 15.8333H10.8334M7.50008 9.16666H10.8334" stroke="#101828" stroke-width="1.5" stroke-linecap="round" stroke-linejoin="round" />
</symbol>
<symbol id="engine" viewBox="0 0 20 20">
  <path d="M16.4749 6.025L16.4833 6.01667L13.3833 2.91667L12.4999 3.8L14.2583 5.55833C13.4749 5.85833 12.9166 6.60833 12.9166 7.5C12.9166 7.77359 12.9705 8.0445 13.0752 8.29726C13.1799 8.55002 13.3333 8.77968 13.5268 8.97314C13.9175 9.36384 14.4474 9.58333 14.9999 9.58333C15.2999 9.58333 15.5749 9.51667 15.8333 9.40833V15.4167C15.8333 15.6377 15.7455 15.8496 15.5892 16.0059C15.4329 16.1622 15.2209 16.25 14.9999 16.25C14.7789 16.25 14.5669 16.1622 14.4107 16.0059C14.2544 15.8496 14.1666 15.6377 14.1666 15.4167V11.6667C14.1666 11.2246 13.991 10.8007 13.6784 10.4882C13.3659 10.1756 12.9419 10 12.4999 10H11.6666V4.16667C11.6666 3.72464 11.491 3.30072 11.1784 2.98816C10.8659 2.67559 10.4419 2.5 9.99992 2.5H4.99992C4.55789 2.5 4.13397 2.67559 3.82141 2.98816C3.50885 3.30072 3.33325 3.72464 3.33325 4.16667V17.5H11.6666V11.25H12.9166V15.4167C12.9166 15.9692 13.1361 16.4991 13.5268 16.8898C13.9175 17.2805 14.4474 17.5 14.9999 17.5C15.2735 17.5 15.5444 17.4461 15.7972 17.3414C16.0499 17.2367 16.2796 17.0833 16.4731 16.8898C16.6665 16.6964 16.82 16.4667 16.9247 16.2139C17.0294 15.9612 17.0833 15.6903 17.0833 15.4167V7.5C17.0833 6.925 16.8499 6.4 16.4749 6.025ZM9.99992 11.25V15.8333H4.99992V10H9.99992V11.25ZM9.99992 8.33333H4.99992V4.16667H9.99992V8.33333ZM14.9999 8.33333C14.7789 8.33333 14.5669 8.24554 14.4107 8.08926C14.2544 7.93297 14.1666 7.72101 14.1666 7.5C14.1666 7.27899 14.2544 7.06702 14.4107 6.91074C14.5669 6.75446 14.7789 6.66667 14.9999 6.66667C15.2209 6.66667 15.4329 6.75446 15.5892 6.91074C15.7455 7.06702 15.8333 7.27899 15.8333 7.5C15.8333 7.72101 15.7455 7.93297 15.5892 8.08926C15.4329 8.24554 15.2209 8.33333 14.9999 8.33333Z" fill="#101828" />
</symbol>
<symbol id="kitchen" viewBox="0 0 20 20">
  <path d="M15.8334 12.5V2.5C11.8201 6.32833 11.6476 9.4325 11.6667 12.5H15.8334ZM15.8334 12.5V17.5H15.0001V15M6.66675 3.33333V17.5M4.16675 3.33333V5.83333C4.16675 6.49637 4.43014 7.13226 4.89898 7.6011C5.36782 8.06994 6.00371 8.33333 6.66675 8.33333C7.32979 8.33333 7.96567 8.06994 8.43452 7.6011C8.90336 7.13226 9.16675 6.49637 9.16675 5.83333V3.33333" stroke="#101828" stroke-width="1.5" stroke-linecap="round" stroke-linejoin="round" />
</symbol>
<symbol id="beds" viewBox="0 0 20 20">
  <path d="M1.875 16.25V11.875C1.87696 11.2126 2.14098 10.5778 2.6094 10.1094C3.07781 9.64098 3.71256 9.37696 4.375 9.375H15.625C16.2874 9.37696 16.9222 9.64098 17.3906 10.1094C17.859 10.5778 18.123 11.2126 18.125 11.875V16.25M15 9.375H3.75V5.3125C3.75124 4.89848 3.91625 4.50177 4.20901 4.20901C4.50177 3.91625 4.89848 3.75124 5.3125 3.75H14.6875C15.1015 3.75124 15.4982 3.91625 15.791 4.20901C16.0837 4.50177 16.2488 4.89848 16.25 5.3125V9.375H15Z" stroke="#101828" stroke-width="1.4" stroke-linecap="round" stroke-linejoin="round" />
  <path d="M1.875 16.25V15.9375C1.87572 15.6891 1.97473 15.451 2.15038 15.2754C2.32604 15.0997 2.56408 15.0007 2.8125 15H17.1875C17.4359 15.0007 17.674 15.0997 17.8496 15.2754C18.0253 15.451 18.1243 15.6891 18.125 15.9375V16.25M4.375 9.375V8.75C4.37593 8.41876 4.50792 8.10136 4.74214 7.86714C4.97636 7.63292 5.29376 7.50093 5.625 7.5H8.75C9.08124 7.50093 9.39864 7.63292 9.63286 7.86714C9.86708 8.10136 9.99907 8.41876 10 8.75M10 8.75V9.375M10 8.75C10.0009 8.41876 10.1329 8.10136 10.3671 7.86714C10.6014 7.63292 10.9188 7.50093 11.25 7.5H14.375C14.7062 7.50093 15.0236 7.63292 15.2579 7.86714C15.4921 8.10136 15.6241 8.41876 15.625 8.75V9.375" stroke="#101828" stroke-width="1.4" stroke-linecap="round" stroke-linejoin="round" />
</symbol>
<symbol id="AC" viewBox="0 0 20 16">
  <mask id="path-1-inside-1_18_11583">
    <path d="M9.69 0C8.7518 0.000205607 7.84263 0.320331 7.11706 0.905952C6.39148 1.49157 5.89429 2.30654 5.71 3.21231L5.6375 3.57169C5.61823 3.65208 5.61559 3.73546 5.62974 3.81688C5.64389 3.89829 5.67454 3.97606 5.71986 4.04556C5.76519 4.11507 5.82426 4.17487 5.89355 4.22142C5.96285 4.26797 6.04095 4.30031 6.12321 4.31651C6.20547 4.3327 6.29019 4.33243 6.37234 4.31571C6.45449 4.29898 6.53238 4.26614 6.60137 4.21915C6.67035 4.17216 6.72903 4.11198 6.77389 4.04219C6.81875 3.97239 6.84889 3.89442 6.8625 3.81292L6.93625 3.45477C7.0748 2.7832 7.46155 2.18615 8.02159 1.77926C8.58162 1.37237 9.27509 1.1846 9.96769 1.25232C10.6603 1.32004 11.3027 1.63843 11.7705 2.14581C12.2384 2.6532 12.4983 3.31348 12.5 3.99877C12.5 4.73333 12.2037 5.43782 11.6763 5.95735C11.1489 6.47687 10.4335 6.7689 9.6875 6.76923H0.625C0.45924 6.76923 0.300269 6.83407 0.183058 6.94947C0.0658481 7.06488 0 7.22141 0 7.38462C0 7.54783 0.0658481 7.70435 0.183058 7.81976C0.300269 7.93517 0.45924 8 0.625 8H9.6875C10.7475 7.97443 11.7554 7.54194 12.496 6.79485C13.2367 6.04775 13.6514 5.04521 13.6517 4.0012C13.652 2.95719 13.2379 1.9544 12.4978 1.20686C11.7576 0.459308 10.75 0.0262118 9.69 0ZM16.875 5.53846C16.0462 5.53846 15.2513 5.86264 14.6653 6.43967C14.0792 7.01671 13.75 7.79933 13.75 8.61539C13.75 8.77859 13.8158 8.93512 13.9331 9.05053C14.0503 9.16594 14.2092 9.23077 14.375 9.23077C14.5408 9.23077 14.6997 9.16594 14.8169 9.05053C14.9342 8.93512 15 8.77859 15 8.61539C15 8.25025 15.11 7.89332 15.316 7.58972C15.522 7.28612 15.8149 7.04949 16.1575 6.90976C16.5001 6.77003 16.8771 6.73347 17.2408 6.8047C17.6045 6.87594 17.9386 7.05177 18.2008 7.30996C18.463 7.56815 18.6416 7.8971 18.714 8.25522C18.7863 8.61334 18.7492 8.98454 18.6073 9.32188C18.4654 9.65922 18.225 9.94755 17.9167 10.1504C17.6084 10.3533 17.2458 10.4615 16.875 10.4615H0.625C0.45924 10.4615 0.300269 10.5264 0.183058 10.6418C0.0658481 10.7572 0 10.9137 0 11.0769C0 11.2401 0.0658481 11.3967 0.183058 11.5121C0.300269 11.6275 0.45924 11.6923 0.625 11.6923H12.8125C13.2269 11.6931 13.624 11.856 13.9164 12.1451C14.2089 12.4342 14.3727 12.8258 14.3719 13.2338C14.371 13.6419 14.2056 14.0329 13.912 14.3208C13.6184 14.6087 13.2207 14.77 12.8062 14.7692C12.433 14.7695 12.0716 14.6396 11.7863 14.4026C11.501 14.1656 11.3101 13.8368 11.2475 13.4745L11.2413 13.4375C11.23 13.3559 11.2023 13.2773 11.1596 13.2065C11.117 13.1356 11.0603 13.0739 10.993 13.025C10.9257 12.9761 10.849 12.941 10.7677 12.9218C10.6863 12.9025 10.6019 12.8996 10.5194 12.9131C10.4368 12.9266 10.3579 12.9563 10.2872 13.0004C10.2166 13.0445 10.1556 13.1022 10.108 13.1699C10.0604 13.2376 10.0271 13.3141 10.01 13.3947C9.99298 13.4754 9.99254 13.5586 10.0087 13.6394L10.015 13.6763C10.1261 14.326 10.4675 14.916 10.9785 15.3414C11.4895 15.7668 12.1371 16.0001 12.8062 16C13.5528 16.0003 14.2691 15.7089 14.7976 15.1896C15.3261 14.6704 15.6237 13.9659 15.625 13.2308C15.625 12.6609 15.45 12.1317 15.1513 11.6923H16.875C17.7038 11.6923 18.4987 11.3681 19.0847 10.7911C19.6708 10.2141 20 9.43144 20 8.61539C20 7.79933 19.6708 7.01671 19.0847 6.43967C18.4987 5.86264 17.7038 5.53846 16.875 5.53846Z" />
  </mask>
  <path d="M9.69 0C8.7518 0.000205607 7.84263 0.320331 7.11706 0.905952C6.39148 1.49157 5.89429 2.30654 5.71 3.21231L5.6375 3.57169C5.61823 3.65208 5.61559 3.73546 5.62974 3.81688C5.64389 3.89829 5.67454 3.97606 5.71986 4.04556C5.76519 4.11507 5.82426 4.17487 5.89355 4.22142C5.96285 4.26797 6.04095 4.30031 6.12321 4.31651C6.20547 4.3327 6.29019 4.33243 6.37234 4.31571C6.45449 4.29898 6.53238 4.26614 6.60137 4.21915C6.67035 4.17216 6.72903 4.11198 6.77389 4.04219C6.81875 3.97239 6.84889 3.89442 6.8625 3.81292L6.93625 3.45477C7.0748 2.7832 7.46155 2.18615 8.02159 1.77926C8.58162 1.37237 9.27509 1.1846 9.96769 1.25232C10.6603 1.32004 11.3027 1.63843 11.7705 2.14581C12.2384 2.6532 12.4983 3.31348 12.5 3.99877C12.5 4.73333 12.2037 5.43782 11.6763 5.95735C11.1489 6.47687 10.4335 6.7689 9.6875 6.76923H0.625C0.45924 6.76923 0.300269 6.83407 0.183058 6.94947C0.0658481 7.06488 0 7.22141 0 7.38462C0 7.54783 0.0658481 7.70435 0.183058 7.81976C0.300269 7.93517 0.45924 8 0.625 8H9.6875C10.7475 7.97443 11.7554 7.54194 12.496 6.79485C13.2367 6.04775 13.6514 5.04521 13.6517 4.0012C13.652 2.95719 13.2379 1.9544 12.4978 1.20686C11.7576 0.459308 10.75 0.0262118 9.69 0ZM16.875 5.53846C16.0462 5.53846 15.2513 5.86264 14.6653 6.43967C14.0792 7.01671 13.75 7.79933 13.75 8.61539C13.75 8.77859 13.8158 8.93512 13.9331 9.05053C14.0503 9.16594 14.2092 9.23077 14.375 9.23077C14.5408 9.23077 14.6997 9.16594 14.8169 9.05053C14.9342 8.93512 15 8.77859 15 8.61539C15 8.25025 15.11 7.89332 15.316 7.58972C15.522 7.28612 15.8149 7.04949 16.1575 6.90976C16.5001 6.77003 16.8771 6.73347 17.2408 6.8047C17.6045 6.87594 17.9386 7.05177 18.2008 7.30996C18.463 7.56815 18.6416 7.8971 18.714 8.25522C18.7863 8.61334 18.7492 8.98454 18.6073 9.32188C18.4654 9.65922 18.225 9.94755 17.9167 10.1504C17.6084 10.3533 17.2458 10.4615 16.875 10.4615H0.625C0.45924 10.4615 0.300269 10.5264 0.183058 10.6418C0.0658481 10.7572 0 10.9137 0 11.0769C0 11.2401 0.0658481 11.3967 0.183058 11.5121C0.300269 11.6275 0.45924 11.6923 0.625 11.6923H12.8125C13.2269 11.6931 13.624 11.856 13.9164 12.1451C14.2089 12.4342 14.3727 12.8258 14.3719 13.2338C14.371 13.6419 14.2056 14.0329 13.912 14.3208C13.6184 14.6087 13.2207 14.77 12.8062 14.7692C12.433 14.7695 12.0716 14.6396 11.7863 14.4026C11.501 14.1656 11.3101 13.8368 11.2475 13.4745L11.2413 13.4375C11.23 13.3559 11.2023 13.2773 11.1596 13.2065C11.117 13.1356 11.0603 13.0739 10.993 13.025C10.9257 12.9761 10.849 12.941 10.7677 12.9218C10.6863 12.9025 10.6019 12.8996 10.5194 12.9131C10.4368 12.9266 10.3579 12.9563 10.2872 13.0004C10.2166 13.0445 10.1556 13.1022 10.108 13.1699C10.0604 13.2376 10.0271 13.3141 10.01 13.3947C9.99298 13.4754 9.99254 13.5586 10.0087 13.6394L10.015 13.6763C10.1261 14.326 10.4675 14.916 10.9785 15.3414C11.4895 15.7668 12.1371 16.0001 12.8062 16C13.5528 16.0003 14.2691 15.7089 14.7976 15.1896C15.3261 14.6704 15.6237 13.9659 15.625 13.2308C15.625 12.6609 15.45 12.1317 15.1513 11.6923H16.875C17.7038 11.6923 18.4987 11.3681 19.0847 10.7911C19.6708 10.2141 20 9.43144 20 8.61539C20 7.79933 19.6708 7.01671 19.0847 6.43967C18.4987 5.86264 17.7038 5.53846 16.875 5.53846Z" fill="#101828" />
  <path d="M9.69 0L9.8136 -4.99847L9.75126 -5.00001L9.6889 -5L9.69 0ZM5.71 3.21231L0.810378 2.21542L0.808736 2.22356L5.71 3.21231ZM5.6375 3.57169L10.4997 4.73738L10.5208 4.64926L10.5388 4.56044L5.6375 3.57169ZM6.8625 3.81292L1.96525 2.80449L1.94629 2.89657L1.9308 2.98929L6.8625 3.81292ZM6.93625 3.45477L2.03938 2.4445L2.039 2.44634L6.93625 3.45477ZM12.5 3.99877L17.5 3.99877L17.5 3.98632L12.5 3.99877ZM9.6875 6.76923V11.7692L9.68969 11.7692L9.6875 6.76923ZM0 7.38462H-5H0ZM9.6875 8V13H9.7478L9.80808 12.9985L9.6875 8ZM15 8.61539H20H15ZM0 11.0769H-5H0ZM12.8125 11.6923L12.8223 6.69231H12.8125V11.6923ZM12.8062 14.7692L12.8161 9.76922L12.8027 9.76923L12.8062 14.7692ZM11.2475 13.4745L6.31763 14.309L6.31906 14.3174L6.32051 14.3258L11.2475 13.4745ZM11.2413 13.4375L6.28794 14.1192L6.29848 14.1958L6.31138 14.272L11.2413 13.4375ZM10.0087 13.6394L14.9386 12.8049L14.926 12.7303L14.9111 12.6562L10.0087 13.6394ZM10.015 13.6763L5.08512 14.5108L5.08658 14.5193L10.015 13.6763ZM12.8062 16L12.8084 11L12.8053 11L12.8062 16ZM15.625 13.2308L20.625 13.2398V13.2308H15.625ZM15.1513 11.6923V6.69231H5.70532L11.0165 14.5037L15.1513 11.6923ZM9.6889 -5C7.61603 -4.99955 5.59727 -4.29281 3.97674 -2.98486L10.2574 4.79676C10.088 4.93347 9.88758 4.99996 9.6911 5L9.6889 -5ZM3.97674 -2.98486C2.35462 -1.67562 1.22882 0.158856 0.810385 2.21542L10.6096 4.20919C10.5598 4.45423 10.4284 4.65877 10.2574 4.79676L3.97674 -2.98486ZM0.808736 2.22356L0.736237 2.58295L10.5388 4.56044L10.6113 4.20105L0.808736 2.22356ZM0.775281 2.40601C0.59723 3.14868 0.572719 3.9201 0.703591 4.67308L10.5559 2.96068C10.6585 3.55083 10.6392 4.15548 10.4997 4.73738L0.775281 2.40601ZM0.703591 4.67308C0.834446 5.42595 1.11728 6.14125 1.53171 6.77675L9.90801 1.31438C10.2318 1.81088 10.4533 2.37063 10.5559 2.96068L0.703591 4.67308ZM1.53171 6.77675C1.94601 7.41206 2.48245 7.95341 3.10551 8.37194L8.68159 0.0709C9.16606 0.396336 9.58436 0.81807 9.90801 1.31438L1.53171 6.77675ZM3.10551 8.37194C3.7284 8.79036 4.42633 9.07838 5.15715 9.22229L7.08927 -0.589279C7.65557 -0.477761 8.19729 -0.254418 8.68159 0.0709L3.10551 8.37194ZM5.15715 9.22229C5.88787 9.36619 6.64 9.36379 7.36988 9.21519L5.37481 -0.583775C5.94039 -0.698927 6.52306 -0.700779 7.08927 -0.589279L5.15715 9.22229ZM7.36988 9.21519C8.09984 9.06657 8.79598 8.77403 9.41622 8.35153L3.78651 0.0867706C4.26878 -0.241739 4.80915 -0.468606 5.37481 -0.583775L7.36988 9.21519ZM9.41622 8.35153C10.0367 7.92891 10.5696 7.38399 10.9799 6.74587L2.56793 1.3385C2.8884 0.839959 3.30405 0.415409 3.78651 0.0867706L9.41622 8.35153ZM10.9799 6.74587C11.3902 6.10753 11.6683 5.39029 11.7942 4.63655L1.9308 2.98929C2.02946 2.39856 2.24732 1.83726 2.56793 1.3385L10.9799 6.74587ZM11.7598 4.82135L11.8335 4.4632L2.039 2.44634L1.96525 2.80449L11.7598 4.82135ZM11.8331 4.46504C11.7173 5.0265 11.3978 5.50664 10.9605 5.82436L5.08268 -2.26584C3.5253 -1.13435 2.43232 0.539891 2.03938 2.4445L11.8331 4.46504ZM10.9605 5.82436C10.5253 6.14056 9.99872 6.2792 9.48113 6.22859L10.4542 -3.72395C8.55147 -3.90999 6.63797 -3.39581 5.08268 -2.26584L10.9605 5.82436ZM9.48113 6.22859C8.96306 6.17794 8.46663 5.93864 8.0946 5.53514L15.4465 -1.24351C14.1388 -2.66178 12.3575 -3.53785 10.4542 -3.72395L9.48113 6.22859ZM8.0946 5.53514C7.72063 5.12956 7.50145 4.58743 7.50002 4.01122L17.5 3.98632C17.4951 2.03954 16.7561 0.176847 15.4465 -1.24351L8.0946 5.53514ZM7.5 3.99877C7.5 3.38241 7.74933 2.80721 8.1675 2.39529L15.1851 9.5194C16.6581 8.06843 17.5 6.08425 17.5 3.99877L7.5 3.99877ZM8.1675 2.39529C8.58305 1.98596 9.13044 1.76947 9.68531 1.76923L9.68969 11.7692C11.7366 11.7683 13.7148 10.9678 15.1851 9.5194L8.1675 2.39529ZM9.6875 1.76923H0.625V11.7692H9.6875V1.76923ZM0.625 1.76923C-0.842035 1.76923 -2.26432 2.34231 -3.32496 3.38664L3.69108 10.5123C2.86486 11.3258 1.76051 11.7692 0.625 11.7692V1.76923ZM-3.32496 3.38664C-4.38823 4.43355 -5 5.87009 -5 7.38462L5 7.38462C5 8.57272 4.51993 9.69621 3.69108 10.5123L-3.32496 3.38664ZM-5 7.38462C-5 8.89914 -4.38823 10.3357 -3.32496 11.3826L3.69108 4.25692C4.51993 5.07302 5 6.19651 5 7.38462L-5 7.38462ZM-3.32496 11.3826C-2.26432 12.4269 -0.842035 13 0.625 13V3C1.76051 3 2.86486 3.44341 3.69108 4.25692L-3.32496 11.3826ZM0.625 13H9.6875V3H0.625V13ZM9.80808 12.9985C12.1481 12.9421 14.3887 11.9876 16.0469 10.315L8.94516 3.2747C9.12203 3.09629 9.34686 3.00676 9.56692 3.00145L9.80808 12.9985ZM16.0469 10.315C17.7075 8.63992 18.651 6.37608 18.6517 4.00276L8.65172 3.99964C8.65181 3.71434 8.76585 3.45557 8.94516 3.2747L16.0469 10.315ZM18.6517 4.00276C18.6525 1.62945 17.7104 -0.634998 16.0508 -2.31111L8.94474 4.72482C8.76552 4.5438 8.65163 4.28494 8.65172 3.99964L18.6517 4.00276ZM16.0508 -2.31111C14.3937 -3.98475 12.1536 -4.94061 9.8136 -4.99847L9.5664 4.99847C9.34633 4.99303 9.12153 4.90336 8.94474 4.72482L16.0508 -2.31111ZM16.875 0.538462C14.7449 0.538462 12.6868 1.37089 11.1573 2.87684L18.1733 10.0025C17.8159 10.3544 17.3475 10.5385 16.875 10.5385V0.538462ZM11.1573 2.87684C9.62516 4.38537 8.75 6.44802 8.75 8.61539H18.75C18.75 9.15065 18.5333 9.64804 18.1733 10.0025L11.1573 2.87684ZM8.75 8.61539C8.75 10.1299 9.36176 11.5664 10.425 12.6134L17.4411 5.48769C18.2699 6.3038 18.75 7.42729 18.75 8.61539H8.75ZM10.425 12.6134C11.4857 13.6577 12.908 14.2308 14.375 14.2308V4.23077C15.5105 4.23077 16.6149 4.67418 17.4411 5.48769L10.425 12.6134ZM14.375 14.2308C15.842 14.2308 17.2643 13.6577 18.325 12.6134L11.3089 5.48769C12.1351 4.67418 13.2395 4.23077 14.375 4.23077V14.2308ZM18.325 12.6134C19.3882 11.5664 20 10.1299 20 8.61539H10C10 7.42729 10.4801 6.3038 11.3089 5.48769L18.325 12.6134ZM20 8.61539C20 9.25657 19.8065 9.87684 19.4533 10.3974L11.1787 4.78208C10.4134 5.90979 10 7.24393 10 8.61539H20ZM19.4533 10.3974C19.1007 10.9169 18.6078 11.3103 18.0457 11.5395L14.2693 2.28C13.0219 2.78871 11.9433 3.65531 11.1787 4.78208L19.4533 10.3974ZM18.0457 11.5395C17.4842 11.7685 16.8708 11.8272 16.2798 11.7115L18.2018 1.89793C16.8833 1.6397 15.5159 1.77157 14.2693 2.28L18.0457 11.5395ZM16.2798 11.7115C15.6884 11.5957 15.1347 11.3079 14.6928 10.8728L21.7088 3.74712C20.7425 2.79565 19.5206 2.15622 18.2018 1.89793L16.2798 11.7115ZM14.6928 10.8728C14.2501 10.4369 13.9396 9.87202 13.813 9.24532L23.615 7.26512C23.3437 5.92218 22.676 4.69941 21.7088 3.74712L14.6928 10.8728ZM13.813 9.24532C13.6863 8.61811 13.752 7.96887 13.9985 7.38303L23.2161 11.2607C23.7463 10.0002 23.8864 8.60856 23.615 7.26512L13.813 9.24532ZM13.9985 7.38303C14.2446 6.79803 14.656 6.31058 15.1686 5.97333L20.6648 14.3275C21.7941 13.5845 22.6861 12.5204 23.2161 11.2607L13.9985 7.38303ZM15.1686 5.97333C15.6804 5.63664 16.274 5.46154 16.875 5.46154V15.4615C18.2176 15.4615 19.5363 15.0699 20.6648 14.3275L15.1686 5.97333ZM16.875 5.46154H0.625V15.4615H16.875V5.46154ZM0.625 5.46154C-0.842035 5.46154 -2.26432 6.03462 -3.32496 7.07895L3.69108 14.2046C2.86486 15.0181 1.76051 15.4615 0.625 15.4615V5.46154ZM-3.32496 7.07895C-4.38823 8.12586 -5 9.5624 -5 11.0769H5C5 12.265 4.51993 13.3885 3.69108 14.2046L-3.32496 7.07895ZM-5 11.0769C-5 12.5914 -4.38823 14.028 -3.32496 15.0749L3.69108 7.94923C4.51993 8.76533 5 9.88882 5 11.0769H-5ZM-3.32496 15.0749C-2.26432 16.1192 -0.842035 16.6923 0.625 16.6923V6.69231C1.76051 6.69231 2.86486 7.13572 3.69108 7.94923L-3.32496 15.0749ZM0.625 16.6923H12.8125V6.69231H0.625V16.6923ZM12.8027 16.6923C11.9158 16.6906 11.0505 16.3427 10.4013 15.7009L17.4316 8.58928C16.1975 7.36932 14.538 6.6957 12.8223 6.69232L12.8027 16.6923ZM10.4013 15.7009C9.74948 15.0565 9.36997 14.167 9.37189 13.2237L19.3719 13.244C19.3754 11.4846 18.6683 9.81183 17.4316 8.58928L10.4013 15.7009ZM9.37189 13.2237C9.3738 12.2804 9.7569 11.3926 10.4111 10.751L17.4129 17.8906C18.6544 16.6732 19.3683 15.0033 19.3719 13.244L9.37189 13.2237ZM10.4111 10.751C11.0627 10.1119 11.9292 9.76749 12.8161 9.76924L12.7964 19.7692C14.5121 19.7726 16.1741 19.1055 17.4129 17.8906L10.4111 10.751ZM12.8027 9.76923C13.5894 9.76868 14.3616 10.0418 14.9811 10.5564L8.59149 18.2488C9.7817 19.2374 11.2765 19.7703 12.8098 19.7692L12.8027 9.76923ZM14.9811 10.5564C15.6024 11.0725 16.0326 11.8017 16.1745 12.6231L6.32051 14.3258C6.58766 15.8719 7.39955 17.2587 8.59149 18.2488L14.9811 10.5564ZM16.1774 12.64L16.1711 12.603L6.31138 14.272L6.31763 14.309L16.1774 12.64ZM16.1946 12.7559C16.0906 12.0007 15.8342 11.2772 15.4437 10.6283L6.87554 15.7846C6.57033 15.2774 6.3694 14.7112 6.28794 14.1192L16.1946 12.7559ZM15.4437 10.6283C15.0533 9.97962 14.5379 9.42009 13.9317 8.97971L8.05429 17.0702C7.58273 16.7277 7.18064 16.2916 6.87554 15.7846L15.4437 10.6283ZM13.9317 8.97971C13.3256 8.53947 12.6402 8.22645 11.9169 8.05563L9.61845 17.7879C9.05786 17.6555 8.52568 17.4127 8.05429 17.0702L13.9317 8.97971ZM11.9169 8.05563C11.1937 7.88483 10.4441 7.85885 9.71128 7.97886L11.3274 17.8474C10.7597 17.9404 10.1789 17.9203 9.61845 17.7879L11.9169 8.05563ZM9.71128 7.97886C8.97843 8.09888 8.27382 8.36307 7.63952 8.75903L12.935 17.2418C12.442 17.5496 11.8952 17.7544 11.3274 17.8474L9.71128 7.97886ZM7.63952 8.75903C7.00504 9.15511 6.45244 9.67593 6.01778 10.2942L14.1983 16.0456C13.8589 16.5284 13.4281 16.934 12.935 17.2418L7.63952 8.75903ZM6.01778 10.2942C5.58299 10.9126 5.27582 11.6149 5.11821 12.3603L14.9019 14.4292C14.7783 15.0132 14.5378 15.5627 14.1983 16.0456L6.01778 10.2942ZM5.11821 12.3603C4.96057 13.1058 4.95653 13.8755 5.10637 14.6226L14.9111 12.6562C15.0286 13.2417 15.0254 13.845 14.9019 14.4292L5.11821 12.3603ZM5.07888 14.4739L5.08513 14.5108L14.9449 12.8418L14.9386 12.8049L5.07888 14.4739ZM5.08658 14.5193C5.40043 16.3542 6.36191 18.0039 7.77949 19.1841L14.1775 11.4987C14.5731 11.828 14.8518 12.2979 14.9434 12.8333L5.08658 14.5193ZM7.77949 19.1841C9.19534 20.3628 10.9771 21.0004 12.8072 21L12.8053 11C13.297 10.9999 13.7837 11.1708 14.1775 11.4987L7.77949 19.1841ZM12.8041 21C14.8508 21.0009 16.8295 20.2026 18.3016 18.7564L11.2935 11.6229C11.7086 11.2151 12.2549 10.9998 12.8084 11L12.8041 21ZM18.3016 18.7564C19.7764 17.3075 20.6212 15.325 20.625 13.2398L10.625 13.2218C10.6261 12.6067 10.8758 12.0333 11.2935 11.6229L18.3016 18.7564ZM20.625 13.2308C20.625 11.6205 20.1269 10.1177 19.286 8.88096L11.0165 14.5037C10.7731 14.1457 10.625 13.7014 10.625 13.2308H20.625ZM15.1513 16.6923H16.875V6.69231H15.1513V16.6923ZM16.875 16.6923C19.0051 16.6923 21.0632 15.8599 22.5927 14.3539L15.5767 7.22826C15.9341 6.87638 16.4025 6.69231 16.875 6.69231V16.6923ZM22.5927 14.3539C24.1248 12.8454 25 10.7828 25 8.61539H15C15 8.08012 15.2167 7.58273 15.5767 7.22826L22.5927 14.3539ZM25 8.61539C25 6.44802 24.1248 4.38537 22.5927 2.87684L15.5767 10.0025C15.2167 9.64804 15 9.15065 15 8.61539H25ZM22.5927 2.87684C21.0632 1.37089 19.0051 0.538462 16.875 0.538462V10.5385C16.4025 10.5385 15.9341 10.3544 15.5767 10.0025L22.5927 2.87684Z" fill="#101828" mask="url(#path-1-inside-1_18_11583)" />
</symbol>
    <symbol id="icon-logo" viewBox="0 0 207 32">
      <path d="M17.399 22.699H9.015l-1.344 3.968H1.943l8.128-22.464h6.336l8.128 22.464h-5.792l-1.344-3.968zm-1.408-4.224-2.784-8.224-2.752 8.224h5.536zm26.698 12.032-2.88-3.872c-.853.171-1.685.256-2.496.256-2.112 0-4.053-.491-5.824-1.472a11.19 11.19 0 0 1-4.192-4.096c-1.024-1.771-1.536-3.755-1.536-5.952s.512-4.171 1.536-5.92a11.19 11.19 0 0 1 4.192-4.096c1.771-.981 3.712-1.472 5.824-1.472s4.043.491 5.792 1.472a10.664 10.664 0 0 1 4.16 4.096c1.024 1.749 1.536 3.723 1.536 5.92 0 1.92-.395 3.68-1.184 5.28a10.732 10.732 0 0 1-3.232 3.936l4.928 5.92h-6.624zM31.361 15.371c0 1.984.533 3.573 1.6 4.768 1.088 1.173 2.539 1.76 4.352 1.76 1.792 0 3.221-.597 4.288-1.792 1.088-1.195 1.632-2.773 1.632-4.736 0-1.984-.544-3.563-1.632-4.736-1.067-1.195-2.496-1.792-4.288-1.792-1.813 0-3.264.587-4.352 1.76-1.067 1.173-1.6 2.763-1.6 4.768zM56.964 4.203v13.44c0 1.344.331 2.379.992 3.104s1.632 1.088 2.912 1.088 2.261-.363 2.944-1.088 1.024-1.76 1.024-3.104V4.203h5.472v13.408c0 2.005-.427 3.701-1.28 5.088s-2.005 2.432-3.456 3.136c-1.429.704-3.029 1.056-4.8 1.056s-3.36-.341-4.768-1.024c-1.387-.704-2.485-1.749-3.296-3.136-.811-1.408-1.216-3.115-1.216-5.12V4.203h5.472zm30.85 18.496H79.43l-1.344 3.968h-5.728l8.128-22.464h6.336l8.128 22.464h-5.792l-1.344-3.968zm-1.408-4.224-2.784-8.224-2.752 8.224h5.536zm26.858-14.272v4.384h-5.952v18.08h-5.472V8.587h-5.952V4.203h17.376zm13.882 22.464-4.672-8.48h-1.312v8.48h-5.472V4.203h9.184c1.771 0 3.275.309 4.512.928 1.259.619 2.197 1.472 2.816 2.56.619 1.067.928 2.261.928 3.584 0 1.493-.427 2.827-1.28 4-.832 1.173-2.069 2.005-3.712 2.496l5.184 8.896h-6.176zm-5.984-12.352h3.392c1.003 0 1.749-.245 2.24-.736.512-.491.768-1.184.768-2.08 0-.853-.256-1.525-.768-2.016-.491-.491-1.237-.736-2.24-.736h-3.392v5.568zm29.067 8.384h-8.384l-1.344 3.968h-5.728l8.128-22.464h6.336l8.128 22.464h-5.792l-1.344-3.968zm-1.408-4.224-2.784-8.224-2.752 8.224h5.536zm9.77-3.072c0-2.219.48-4.192 1.44-5.92.96-1.749 2.293-3.104 4-4.064 1.728-.981 3.68-1.472 5.856-1.472 2.667 0 4.949.704 6.848 2.112s3.168 3.328 3.808 5.76h-6.016c-.448-.939-1.088-1.653-1.92-2.144-.811-.491-1.739-.736-2.784-.736-1.685 0-3.051.587-4.096 1.76s-1.568 2.741-1.568 4.704c0 1.963.523 3.531 1.568 4.704s2.411 1.76 4.096 1.76c1.045 0 1.973-.245 2.784-.736.832-.491 1.472-1.205 1.92-2.144h6.016c-.64 2.432-1.909 4.352-3.808 5.76-1.899 1.387-4.181 2.08-6.848 2.08-2.176 0-4.128-.48-5.856-1.44-1.707-.981-3.04-2.336-4-4.064s-1.44-3.701-1.44-5.92zm38.006 11.264-7.552-9.92v9.92h-5.472V4.203h5.472v9.856l7.488-9.856h6.432l-8.704 11.008 9.024 11.456h-6.688z"/>
    </symbol>

    <symbol id="icon-radio" viewBox="0 0 32 32">
      <path stroke-width="2.4" d="M30.8 16c0 8.174-6.626 14.8-14.8 14.8S1.2 24.174 1.2 16 7.826 1.2 16 1.2 30.8 7.826 30.8 16z"/>
      <path d="M22.856 16a6.857 6.857 0 1 1-13.714 0 6.857 6.857 0 0 1 13.714 0z"/>
    </symbol>
    
    <symbol id="icon-clamation" viewBox="0 0 32 32">
      <path d="M13.474 18.545c.121 1.266.328 2.206.611 2.827.287.618.796.927 1.532.927.137 0 .261-.022.383-.047.125.025.247.047.386.047.734 0 1.244-.308 1.53-.927.285-.62.488-1.561.611-2.827l.653-9.771c.122-1.905.184-3.271.184-4.101 0-1.129-.295-2.01-.886-2.643-.593-.632-1.372-.948-2.337-.948-.052 0-.09.012-.14.014-.048-.002-.087-.014-.137-.014-.967 0-1.745.316-2.337.948s-.888 1.515-.888 2.643c0 .83.06 2.196.184 4.101l.652 9.77zm2.551 7.325c-.937 0-1.733.295-2.394.886s-.992 1.31-.992 2.153c0 .951.335 1.701 1 2.244.668.544 1.447.816 2.338.816.906 0 1.697-.268 2.373-.806.675-.536 1.012-1.289 1.012-2.254 0-.843-.323-1.561-.969-2.153s-1.436-.887-2.37-.887z"/>
    </symbol>

    <symbol id="icon-upload" viewBox="0 0 34 32">
      <path stroke-linecap="round" stroke-linejoin="round" stroke-width="2.88" d="M28.8 20v5.333A2.668 2.668 0 0 1 26.133 28H7.466a2.668 2.668 0 0 1-2.667-2.667V20M23.467 10.667 16.8 4l-6.667 6.667M16.8 4v16"/>
    </symbol>

    <symbol id="icon-cross" viewBox="0 0 32 32">
      <path stroke-linecap="round" stroke-linejoin="round" stroke-width="3.429" d="M24 8 8 24M8 8l16 16"/>
    </symbol>

    <symbol id="icon-log-out" viewBox="0 0 30 32">
      <path stroke-linecap="round" stroke-linejoin="round" stroke-width="2.824" d="M11.294 27.294h-5.02a2.509 2.509 0 0 1-2.51-2.51V7.215a2.509 2.509 0 0 1 2.51-2.51h5.02M20.078 22.274l6.274-6.275-6.274-6.274M26.353 16H11.294"/>
    </symbol>

    <symbol id="icon-settings" viewBox="0 0 30 32">
      <path stroke-linecap="round" stroke-linejoin="round" stroke-width="2.824" d="M15.059 19.765a3.765 3.765 0 1 0 0-7.53 3.765 3.765 0 0 0 0 7.53z"/>
      <path stroke-linecap="round" stroke-linejoin="round" stroke-width="2.824" d="M24.345 19.765a2.068 2.068 0 0 0 .414 2.283l.075.075a2.493 2.493 0 0 1 .736 1.775 2.511 2.511 0 0 1-4.288 1.776l-.075-.075a2.074 2.074 0 0 0-2.283-.414 2.07 2.07 0 0 0-1.255 1.895v.213a2.509 2.509 0 1 1-5.02 0v-.113a2.071 2.071 0 0 0-1.355-1.895 2.069 2.069 0 0 0-2.284.414l-.075.075a2.525 2.525 0 0 1-1.776.736 2.515 2.515 0 0 1-2.321-1.551 2.511 2.511 0 0 1 .545-2.737l.075-.075a2.074 2.074 0 0 0 .414-2.283 2.07 2.07 0 0 0-1.895-1.255h-.213a2.509 2.509 0 1 1 0-5.02h.113a2.071 2.071 0 0 0 1.895-1.355 2.069 2.069 0 0 0-.414-2.283l-.075-.075A2.525 2.525 0 0 1 4.547 8.1a2.515 2.515 0 0 1 1.551-2.321 2.515 2.515 0 0 1 2.737.545l.075.075a2.074 2.074 0 0 0 2.283.414h.1a2.07 2.07 0 0 0 1.255-1.895v-.213a2.509 2.509 0 1 1 5.02 0v.113a2.074 2.074 0 0 0 1.255 1.895 2.068 2.068 0 0 0 2.284-.414l.075-.075a2.493 2.493 0 0 1 1.775-.736 2.515 2.515 0 0 1 2.32 1.551 2.515 2.515 0 0 1-.545 2.737l-.075.075a2.074 2.074 0 0 0-.414 2.283v.1a2.07 2.07 0 0 0 1.895 1.255h.213a2.509 2.509 0 1 1 0 5.02h-.113a2.074 2.074 0 0 0-1.895 1.255z"/>
    </symbol>

    <symbol id="icon-part-of-cirlce" viewBox="0 0 32 32">
      <path stroke-linecap="round" stroke-linejoin="round" stroke-width="6.4" d="M3.2 5.76c0-.886 0-1.33.197-1.689.162-.296.467-.572.778-.704.377-.16.778-.12 1.581-.039a25.597 25.597 0 0 1 22.916 22.916c.08.802.121 1.204-.039 1.581a1.698 1.698 0 0 1-.704.778c-.359.197-.802.197-1.689.197H5.76c-.896 0-1.344 0-1.686-.174a1.596 1.596 0 0 1-.699-.699c-.174-.342-.174-.79-.174-1.686V5.761z"/>
    </symbol>

    <symbol id="icon-big-part-of-circle" viewBox="0 0 32 32">
      <path stroke-linecap="round" stroke-linejoin="round" stroke-width="3.556" d="M28.8 16c.492 0 .739 0 .938.109.165.09.318.26.391.432.089.209.067.432.022.878A14.223 14.223 0 1 1 14.58 1.848c.446-.045.669-.067.878.022a.942.942 0 0 1 .432.391c.109.2.109.446.109.938v11.378c0 .498 0 .747.097.937a.887.887 0 0 0 .388.388c.19.097.439.097.937.097h11.378z"/>
    </symbol>

    <symbol id="icon-chevron-right" viewBox="0 0 8 12">
      <path d="M1.75 10.5L6.25 6L1.75 1.5" stroke-width="2" stroke-linecap="round" stroke-linejoin="round" />
    </symbol>

    <symbol id="icon-chevron-left" viewBox="0 0 8 12">
      <path d="M6.25 10.5L1.75 6L6.25 1.5" stroke-width="2" stroke-linecap="round" stroke-linejoin="round" />
    </symbol>

    <symbol id="icon-plus-in-circle" viewBox="0 0 32 32">
      <path d="M16 0c8.837 0 16 7.163 16 16s-7.163 16-16 16S0 24.837 0 16 7.163 0 16 0z"/>
      <path stroke-linecap="round" stroke-linejoin="round" stroke-width="1.6" d="M16 10.286v11.429M10.286 16h11.429"/>
    </symbol>

    <symbol id="icon-chevron-down" viewBox="0 0 32 32">
      <path stroke-linecap="round" stroke-linejoin="round" stroke-width="3.2" d="m8 12 8 8 8-8"/>
    </symbol>

    <symbol id="icon-chevron-up" viewBox="0 0 32 32">
      <path stroke-linejoin="round" stroke-linecap="round" stroke-miterlimit="4" stroke-width="3.2" d="M8 20l8-8 8 8"></path>
    </symbol>

    <symbol id="icon-trash" viewBox="0 0 32 32">
      <path stroke-linecap="round" stroke-linejoin="round" stroke-width="3" d="M12 4h8"/>
      <path stroke-linecap="round" stroke-linejoin="round" stroke-width="3.6" d="M4 8h24m-2.667 0-.935 14.026c-.14 2.104-.21 3.156-.665 3.954a4.007 4.007 0 0 1-1.731 1.62c-.826.4-1.881.4-3.99.4h-4.025c-2.109 0-3.163 0-3.99-.4a4.001 4.001 0 0 1-1.731-1.62c-.455-.798-.525-1.85-.665-3.954L6.666 8"/>
    </symbol>

    <symbol id="icon-edit" viewBox="0 0 32 32">
      <path stroke-linecap="round" stroke-linejoin="round" stroke-width="3.6" d="M22.667 4a3.766 3.766 0 0 1 4.109-.817 3.781 3.781 0 0 1 2.041 2.04 3.779 3.779 0 0 1 0 2.886A3.756 3.756 0 0 1 28 9.332l-18 18-7.333 2 2-7.333 18-18z"/>
    </symbol>

    <symbol id="icon-glass-fill" viewBox="0 0 31 32">
      <path d="M26.955 5.226c-.095-.321-.254-.616-.468-.868s-.477-.452-.772-.589a2.087 2.087 0 0 0-.937-.21H6.562a1.83 1.83 0 0 0-.937.197c-.301.139-.57.345-.785.604a2.36 2.36 0 0 0-.468.866 2.392 2.392 0 0 0-.089.984l2.076 18.377a5.202 5.202 0 0 0 1.633 3.255 4.78 4.78 0 0 0 3.253 1.313h8.861a4.804 4.804 0 0 0 3.266-1.313 5.316 5.316 0 0 0 1.62-3.255l1.127-10.331v-.158l.873-7.876a2.724 2.724 0 0 0-.038-.998zM14.17 25.375h-1.266a3.573 3.573 0 0 1-2.215-.945 3.744 3.744 0 0 1-1.139-2.192l-.304-2.258c-.039-.344.053-.691.258-.965s.504-.455.835-.503.667.04.936.246.45.512.503.854l.304 2.232c.034.244.151.467.329.63a1 1 0 0 0 .646.276h1.266c.336 0 .658.138.895.384s.371.58.371.928-.133.682-.371.928a1.242 1.242 0 0 1-.895.384h-.152zm10.127-12.116c-2.671.538-4.949.643-7.367-1.313-3-2.455-6.633-1.667-10.127-.381L6.17 5.999a.41.41 0 0 1 0-.171.337.337 0 0 1 .089-.144.257.257 0 0 1 .127-.105.262.262 0 0 1 .152 0h18.38a.53.53 0 0 1 .127.105.314.314 0 0 1 .076.144.304.304 0 0 1 0 .184l-.823 7.246z"/>
    </symbol>
    <symbol id="icon-eye" viewBox="0 0 32 32">
      <path stroke-width="2.88" stroke-miterlimit="4" stroke-linecap="round" stroke-linejoin="round" d="M1.333 16c0 0 5.333-10.667 14.667-10.667s14.667 10.667 14.667 10.667c0 0-5.333 10.667-14.667 10.667s-14.667-10.667-14.667-10.667z"></path>
      <path stroke-width="2.88" stroke-miterlimit="4" stroke-linecap="round" stroke-linejoin="round" d="M16 20c2.209 0 4-1.791 4-4s-1.791-4-4-4c-2.209 0-4 1.791-4 4s1.791 4 4 4z"></path>
    </symbol>

    <symbol id="icon-eye-off" viewBox="0 0 32 32">
      <path stroke-linecap="round" stroke-linejoin="round" stroke-width="2.88" d="M23.92 23.92A13.43 13.43 0 0 1 16 26.667C6.667 26.667 1.333 16 1.333 16A24.605 24.605 0 0 1 8.08 8.08m5.12-2.427a12.161 12.161 0 0 1 2.8-.32C25.333 5.333 30.667 16 30.667 16a24.646 24.646 0 0 1-2.88 4.253m-8.961-1.426a4.01 4.01 0 0 1-2.855 1.273 3.978 3.978 0 0 1-1.569-.291 3.984 3.984 0 0 1-2.21-2.21 3.995 3.995 0 0 1 .983-4.424M1.333 1.334l29.333 29.333"/>
    </symbol>

    <symbol id="icon-ellipse" viewBox="0 0 32 32">
      <path d="M32 16c0 8.837-7.163 16-16 16S0 24.837 0 16 7.163 0 16 0s16 7.163 16 16z"/>
    </symbol>

    <symbol id="icon-ChevronUp" viewBox="0 0 53 32">
      <path stroke-linejoin="round" stroke-linecap="round" stroke-miterlimit="4" stroke-width="8" d="M5.333 26.667l21.333-21.333 21.333 21.333"></path>
    </symbol>
    
    <symbol id="icon-only-plus" viewBox="0 0 32 32">
      <path stroke-linecap="round" stroke-linejoin="round" stroke-width="2.667" d="M16 6.667v18.667M6.667 16h18.667"/>
    </symbol>

    <symbol id="icon-minus" viewBox="0 0 32 32">
      <path stroke-linejoin="round" stroke-linecap="round" stroke-miterlimit="4" stroke-width="1.44" d="M10.286 16h11.429"></path>
    </symbol>
    
  </defs>
</svg>
