<svg xmlns="http://www.w3.org/2000/svg" aria-hidden="true" style="position:absolute;width:0;height:0;overflow:hidden">
  <defs>
    <symbol id="i-route" viewBox="0 0 32 32">
      <path d="M6.667 4a2.667 2.667 0 1 0 0 5.334 2.667 2.667 0 0 0 0-5.334zM1.333 6.667a5.333 5.333 0 1 1 10.666 0 5.333 5.333 0 0 1-10.666 0zM25.333 22.667a2.667 2.667 0 1 0 0 5.334 2.667 2.667 0 0 0 0-5.334zM20 25.333a5.333 5.333 0 1 1 10.667 0 5.333 5.333 0 0 1-10.667 0z"/>
      <path d="M13.333 6.667c0-.736.597-1.333 1.333-1.333h8.4c4.13 0 5.62 5.404 1.987 7.429L9.58 21.567a1.295 1.295 0 0 0 .686 2.434h7.067a1.333 1.333 0 0 1 0 2.666h-7.067c-4.13 0-5.619-5.404-1.987-7.429l15.473-8.804A1.295 1.295 0 0 0 23.066 8h-8.4a1.333 1.333 0 0 1-1.333-1.333z"/>
    </symbol>
    <symbol id="i-microwave" viewBox="0 0 32 32">
      <path stroke-linecap="round" stroke-linejoin="round" stroke-width="2.24" d="M29.714 5.714H2.285a1.14 1.14 0 0 0-1.143 1.143v18.286a1.14 1.14 0 0 0 1.143 1.143h27.429a1.14 1.14 0 0 0 1.143-1.143V6.857a1.14 1.14 0 0 0-1.143-1.143z"/>
      <path stroke-linecap="round" stroke-linejoin="round" stroke-width="2.24" d="M25.143 11.428h1.143M25.143 16h1.143m-6.858-5.714H6.857a1.14 1.14 0 0 0-1.143 1.143v9.143a1.14 1.14 0 0 0 1.143 1.143h12.571a1.14 1.14 0 0 0 1.143-1.143v-9.143a1.14 1.14 0 0 0-1.143-1.143z"/>
    </symbol>
    <symbol id="i-water" viewBox="0 0 32 32">
      <path stroke-miterlimit="10" stroke-width="2.4" d="M25 20c0 5.523-3.477 9-9 9s-9-3.477-9-9c0-5.927 6.452-13.928 8.431-16.242a.763.763 0 0 1 .57-.263.744.744 0 0 1 .57.263c1.978 2.314 8.43 10.316 8.43 16.242z"/>
      <path stroke-linecap="round" stroke-linejoin="round" stroke-width="2.4" d="M21.5 20.5A4.5 4.5 0 0 1 17 25"/>
    </symbol>
    <symbol id="i-gas" viewBox="0 0 26 32">
      <path d="M23.849 14.578c-.433-.533-.96-.996-1.449-1.458-1.261-1.067-2.691-1.831-3.896-2.951C15.7 7.573 15.079 3.289 16.867 0c-1.788.409-3.35 1.333-4.686 2.347C7.307 6.045 5.387 12.57 7.683 18.17c.075.178.151.356.151.587 0 .391-.282.747-.659.889-.433.178-.885.071-1.242-.213a1.052 1.052 0 0 1-.263-.302c-2.127-2.542-2.465-6.187-1.035-9.102C1.492 12.447-.221 16.536.024 20.394c.113.889.226 1.778.546 2.667.263 1.067.772 2.133 1.336 3.076 2.033 3.076 5.552 5.28 9.335 5.725 4.027.48 8.337-.213 11.424-2.844 3.444-2.951 4.648-7.68 2.879-11.734l-.245-.462c-.395-.818-1.449-2.24-1.449-2.24zm-5.947 11.2c-.527.427-1.393.889-2.07 1.067-2.108.711-4.216-.284-5.458-1.458 2.24-.498 3.576-2.062 3.971-3.645.32-1.422-.282-2.596-.527-3.965-.226-1.316-.188-2.436.32-3.662.358.676.734 1.351 1.186 1.885 1.449 1.778 3.726 2.56 4.216 4.978.075.249.113.498.113.764.056 1.458-.621 3.058-1.75 4.036z"/>
    </symbol>
    <symbol id="i-freezer" viewBox="0 0 32 32">
      <path stroke-linecap="round" stroke-linejoin="round" stroke-width="2.08" d="M23.4 3H8.607a2 2 0 0 0-2 2v20.387a2 2 0 0 0 2 2H23.4a2 2 0 0 0 2-2V5a2 2 0 0 0-2-2z"/>
      <path stroke-linecap="round" stroke-linejoin="round" stroke-width="2.08" d="M6.607 13.127h18.787m-15.081-2.56v-4.04m0 12.913V15.4M8.427 27.387v.7a.911.911 0 0 0 .907.913h1.647a.911.911 0 0 0 .914-.914v-.7m8.205.001v.7a.913.913 0 0 0 .914.914h1.653a.913.913 0 0 0 .914-.914v-.7"/>
    </symbol>
    <symbol id="i-air2" viewBox="0 0 40 32">
      <path d="M19.38 0c-1.876 0-3.695.641-5.146 1.812s-2.446 2.801-2.814 4.613l-.145.719a1.208 1.208 0 0 0 .164.947 1.25 1.25 0 0 0 1.304.54 1.238 1.238 0 0 0 .98-1.006l.148-.716c.277-1.343 1.051-2.537 2.171-3.351a5.685 5.685 0 0 1 7.498.733 5.483 5.483 0 0 1 1.459 3.706c0 1.469-.593 2.878-1.647 3.917s-2.486 1.623-3.978 1.624H1.249c-.332 0-.649.13-.884.36a1.217 1.217 0 0 0 0 1.74c.234.231.552.36.884.36h18.125c2.12-.051 4.136-.916 5.617-2.41s2.311-3.499 2.311-5.587-.828-4.094-2.308-5.589a8.191 8.191 0 0 0-5.616-2.414zm14.37 11.077c-1.658 0-3.247.648-4.419 1.802S27.5 15.598 27.5 17.23c0 .326.132.639.366.87s.552.36.884.36.649-.13.884-.36a1.22 1.22 0 0 0 .366-.87c0-.73.22-1.444.632-2.051s.998-1.08 1.683-1.36c.685-.279 1.439-.353 2.167-.21s1.396.494 1.92 1.011a3.65 3.65 0 0 1 .813 4.024 3.709 3.709 0 0 1-1.381 1.657 3.79 3.79 0 0 1-2.083.622h-32.5c-.332 0-.649.13-.884.361a1.22 1.22 0 0 0 0 1.74c.234.23.552.36.884.36h24.375c.829.002 1.623.327 2.208.906s.913 1.361.911 2.177c-.002.816-.333 1.598-.92 2.174s-1.383.898-2.212.897c-.746.001-1.469-.259-2.04-.733s-.952-1.132-1.078-1.856l-.012-.074a1.235 1.235 0 0 0-.947-1.031 1.26 1.26 0 0 0-1.319.497 1.216 1.216 0 0 0-.199.939l.013.074c.222 1.299.905 2.479 1.927 3.33s2.317 1.317 3.655 1.317c1.493.001 2.926-.582 3.983-1.621s1.652-2.447 1.655-3.918c0-1.14-.35-2.198-.947-3.077h3.447c1.658 0 3.247-.648 4.419-1.802s1.831-2.719 1.831-4.351-.658-3.197-1.831-4.351a6.3 6.3 0 0 0-4.419-1.802z"/>
      <path d="m19.38 0 .247-9.997-.125-.003h-.125l.002 10zm-7.96 6.425L1.621 4.431l-.003.016 9.803 1.978zm-.145.718 9.724 2.331.042-.176.036-.178-9.803-1.978zm2.45.483L3.931 5.609l-.038.184-.031.185 9.863 1.647zm.148-.716zM25 7.998h10v-.025l-10 .025zm-5.625 5.54v10h.004l-.004-10zM0 14.769zM19.375 16v10h.121l.121-.003L19.376 16zM30 17.231zM0 22.154zm25.625 1.231.02-10h-.02v10zm-.013 6.153.02-10h-.027l.007 10zm-3.117-2.589-9.86 1.669.003.017.003.017 9.854-1.703zm-.012-.074-9.907 1.363.021.153.026.152 9.86-1.669zm-2.466.404 9.86-1.669-.025-.149-.03-.148-9.805 1.966zm.013.074-9.86 1.669.003.017 9.857-1.686zM25.612 32l.004-10h-.006l.002 10zm5.638-5.538 10 .018v-.018h-10zm-.947-3.077v-10H11.411l10.622 15.623 8.27-5.623zM19.378-10A18.196 18.196 0 0 0 7.954-5.97L20.515 9.593c-.339.273-.74.406-1.133.406l-.004-20zM7.953-5.97A17.973 17.973 0 0 0 1.62 4.431l19.598 3.988c-.1.49-.362.899-.704 1.175L7.953-5.969zM1.617 4.447l-.145.719 19.605 3.955.145-.719L1.617 4.447zm-.066.365a11.209 11.209 0 0 0-.143 4.534l19.705-3.425a8.788 8.788 0 0 1-.112 3.553L1.552 4.811zm-.144 4.534a11.218 11.218 0 0 0 1.656 4.207L19.816 2.628a8.768 8.768 0 0 1 1.296 3.293L1.407 9.346zm1.656 4.207a11.228 11.228 0 0 0 3.148 3.19L17.363.141a8.753 8.753 0 0 1 2.453 2.487L3.063 13.553zm3.148 3.191a11.266 11.266 0 0 0 4.103 1.701l3.864-19.623a8.75 8.75 0 0 1 3.185 1.32L6.211 16.744zm4.103 1.701c1.461.288 2.966.283 4.425-.014l-3.99-19.598a8.737 8.737 0 0 1 3.429-.011l-3.864 19.623zm4.426-.015a11.26 11.26 0 0 0 4.093-1.727L7.574.173a8.734 8.734 0 0 1 3.177-1.341l3.99 19.598zm4.092-1.727a11.23 11.23 0 0 0 3.127-3.211L5.135 2.677A8.756 8.756 0 0 1 7.572.174l11.259 16.53zm3.128-3.211a11.219 11.219 0 0 0 1.629-4.219L3.862 5.978a8.787 8.787 0 0 1 1.274-3.302L21.96 13.491zm1.56-3.849.147-.716L4.078 4.893l-.147.716L23.52 9.643zm.146-.713a4.48 4.48 0 0 1-1.745 2.719L10.165-4.531A15.524 15.524 0 0 0 4.078 4.89l19.587 4.041zm-1.745 2.719c-.87.632-1.924.91-2.959.808l1.946-19.905a15.685 15.685 0 0 0-10.743 2.916l11.756 16.18zm-2.959.808a4.347 4.347 0 0 1-2.773-1.387L30.893-2.487a15.648 15.648 0 0 0-9.985-4.961l-1.946 19.905zm-2.773-1.387A4.513 4.513 0 0 1 15 8.022l20-.05a15.49 15.49 0 0 0-4.107-10.46L16.189 11.069zM15 7.998c0-1.233.499-2.383 1.335-3.207L30.37 19.039A15.498 15.498 0 0 0 35 7.998H15zm1.335-3.207a4.324 4.324 0 0 1 3.036-1.252l.009 20a15.673 15.673 0 0 0 10.991-4.5L16.336 4.791zm3.04-1.253H1.25v20h18.125v-20zm-18.125 0a11.258 11.258 0 0 0-7.9 3.235L7.382 21.024a8.74 8.74 0 0 1-6.132 2.514v-20zm-7.9 3.235A11.22 11.22 0 0 0-10 14.769h20c0 2.376-.96 4.623-2.618 6.255L-6.65 6.773zM-10 14.769c0 3.029 1.224 5.902 3.35 7.996L7.382 8.514A8.777 8.777 0 0 1 10 14.769h-20zm3.35 7.996A11.258 11.258 0 0 0 1.25 26V6a8.74 8.74 0 0 1 6.132 2.514L-6.65 22.765zM1.25 26h18.125V6H1.25v20zm18.366-.003a18.192 18.192 0 0 0 12.478-5.367L17.891 6.549a1.809 1.809 0 0 1 1.244-.546l.482 19.994zm12.478-5.367a17.942 17.942 0 0 0 5.21-12.624l-20-.006c0-.571.228-1.088.587-1.45l14.203 14.081zm5.209-12.624a17.937 17.937 0 0 0-5.202-12.628L17.889 9.45A2.065 2.065 0 0 1 17.303 8l20 .006zM32.102-4.622a18.19 18.19 0 0 0-12.474-5.375l-.494 19.994c-.44-.011-.89-.19-1.243-.547L32.103-4.622zm1.648 5.699c-4.26 0-8.376 1.665-11.435 4.677l14.032 14.251a3.7 3.7 0 0 1-2.597 1.072v-20zM22.315 5.754A16.107 16.107 0 0 0 17.5 17.231h20a3.892 3.892 0 0 1-1.153 2.774L22.315 5.754zM17.5 17.231c0 3.029 1.224 5.902 3.35 7.996l14.032-14.251a8.777 8.777 0 0 1 2.618 6.255h-20zm3.35 7.996a11.258 11.258 0 0 0 7.9 3.235v-20a8.74 8.74 0 0 1 6.132 2.514L20.85 25.227zm7.9 3.235c2.934 0 5.779-1.146 7.9-3.235L22.618 10.976a8.74 8.74 0 0 1 6.132-2.514v20zm7.9-3.235A11.224 11.224 0 0 0 40 17.231H20c0-2.376.96-4.623 2.618-6.255L36.65 25.227zM40 17.231a6.352 6.352 0 0 1-1.093 3.564L22.358 9.564a13.648 13.648 0 0 0-2.357 7.667h20zm-1.093 3.564a6.259 6.259 0 0 1-2.815 2.284L28.539 4.56a13.735 13.735 0 0 0-6.181 5.004l16.549 11.231zm-2.816 2.284a6.2 6.2 0 0 1-3.532.344l3.844-19.627a13.807 13.807 0 0 0-7.865.764l7.553 18.519zm-3.531.344a6.235 6.235 0 0 1-3.174-1.677L43.418 7.495a13.763 13.763 0 0 0-7.014-3.698L32.56 23.424zm-3.174-1.677a6.337 6.337 0 0 1-1.76-3.255l19.604-3.96a13.681 13.681 0 0 0-3.812-7.036L29.386 21.746zm-1.76-3.255a6.365 6.365 0 0 1 .371-3.725l18.435 7.755a13.642 13.642 0 0 0 .798-7.991l-19.604 3.96zm.371-3.725a6.29 6.29 0 0 1 2.34-2.819l10.992 16.708a13.703 13.703 0 0 0 5.103-6.134l-18.435-7.755zm2.34-2.819a6.213 6.213 0 0 1 3.413-1.024v20c2.685 0 5.323-.783 7.58-2.268L30.338 11.947zm3.413-1.024H1.25v20h32.5v-20zm-32.5 0a11.258 11.258 0 0 0-7.9 3.235L7.382 28.409a8.74 8.74 0 0 1-6.132 2.514v-20zm-7.9 3.235A11.22 11.22 0 0 0-10 22.154h20c0 2.376-.96 4.623-2.618 6.255L-6.65 14.158zM-10 22.154c0 3.029 1.224 5.902 3.35 7.996L7.382 15.899A8.777 8.777 0 0 1 10 22.154h-20zm3.35 7.996a11.258 11.258 0 0 0 7.9 3.235v-20a8.74 8.74 0 0 1 6.132 2.514L-6.65 30.15zm7.9 3.235h24.375v-20H1.25v20zm24.355 0a6.848 6.848 0 0 1-4.803-1.983l14.061-14.223a13.15 13.15 0 0 0-9.219-3.794l-.039 20zm-4.802-1.983a6.946 6.946 0 0 1-2.059-4.954l20 .041a13.05 13.05 0 0 0-3.881-9.309L20.802 31.403zm-2.059-4.955a6.947 6.947 0 0 1 2.078-4.945l14.004 14.279a13.053 13.053 0 0 0 3.918-9.293l-20-.041zm2.078-4.945a6.852 6.852 0 0 1 4.81-1.964l-.039 20a13.15 13.15 0 0 0 9.233-3.757L20.822 21.502zm4.783-1.964a6.813 6.813 0 0 1 4.357 1.574L17.183 36.497a13.192 13.192 0 0 0 8.437 3.041l-.014-20zm4.357 1.575a6.9 6.9 0 0 1 2.387 4.133l-19.708 3.405a13.099 13.099 0 0 0 4.542 7.846l12.779-15.385zm2.393 4.167-.013-.074-19.719 3.338.012.074 19.72-3.338zm.034.232a11.225 11.225 0 0 0-1.502-4.255L13.751 31.57a8.788 8.788 0 0 1-1.175-3.331l19.813-2.727zm-1.502-4.255a11.253 11.253 0 0 0-3.024-3.297L16.108 34.141a8.756 8.756 0 0 1-2.357-2.571l17.136-10.313zm-3.024-3.298a11.255 11.255 0 0 0-4.03-1.848l-4.597 19.465a8.736 8.736 0 0 1-3.128-1.435L27.863 17.96zm-4.029-1.848a11.26 11.26 0 0 0-4.411-.154l3.232 19.737a8.726 8.726 0 0 1-3.418-.119l4.597-19.465zm-4.411-.153c-1.466.24-2.875.768-4.144 1.56L25.87 34.484a8.733 8.733 0 0 1-3.215 1.211l-3.232-19.737zm-4.144 1.56a11.239 11.239 0 0 0-3.243 3.07l16.361 11.503a8.736 8.736 0 0 1-2.527 2.392L15.279 17.517zm-3.243 3.07a11.208 11.208 0 0 0-1.799 4.132l19.567 4.138a8.782 8.782 0 0 1-1.407 3.233L12.036 20.588zm-1.8 4.133a11.231 11.231 0 0 0-.024 4.525l19.609-3.933a8.786 8.786 0 0 1-.018 3.546l-19.567-4.138zm-.078 4.227.012.074 19.72-3.338-.013-.074-19.719 3.338zm.015.091a15.558 15.558 0 0 0 5.386 9.33l12.796-15.371a4.447 4.447 0 0 1 1.532 2.669l-19.714 3.372zm5.386 9.329A15.714 15.714 0 0 0 25.614 42l-.004-20a4.29 4.29 0 0 1 2.744.997L15.558 38.368zM25.608 42a15.681 15.681 0 0 0 10.995-4.487L22.587 23.246A4.32 4.32 0 0 1 25.617 22l-.009 20zm10.995-4.487A15.507 15.507 0 0 0 41.25 26.48l-20-.036a4.497 4.497 0 0 1 1.337-3.198l14.016 14.267zm4.647-11.051c0-3.221-.996-6.226-2.678-8.7L22.033 29.007a4.547 4.547 0 0 1-.783-2.546h20zm-10.947 6.923h3.447v-20h-3.447v20zm3.447 0c4.26 0 8.376-1.665 11.435-4.677L31.153 14.457a3.7 3.7 0 0 1 2.597-1.072v20zm11.435-4.677A16.107 16.107 0 0 0 50 17.231H30c0-1.071.433-2.065 1.153-2.774l14.032 14.251zM50 17.231c0-4.335-1.75-8.46-4.815-11.477L31.153 20.005A3.894 3.894 0 0 1 30 17.231h20zM45.185 5.754A16.299 16.299 0 0 0 33.75 1.077v20a3.7 3.7 0 0 1-2.597-1.072L45.185 5.754z"/>
    </symbol>
    <symbol id="i-camper" viewBox="0 0 46 32">
      <path d="M2.608 1.8h12.409c.105 0 .203-.04.278-.112L16.487.525a1.845 1.845 0 0 1 1.297-.524h18.817c.876 0 1.69.425 2.176 1.136l2.255 3.3c.32.468.349 1.067.077 1.564s-.8.805-1.377.805h-9.698v.956h4.967c1.317 0 2.501.763 3.018 1.945l2.908 6.65 2.548.994c1.36.531 2.24 1.797 2.24 3.227v6.158c0 .918-.766 1.666-1.708 1.666h-2.964c-.345 2.039-2.164 3.599-4.35 3.599s-4.005-1.561-4.35-3.599H16.14c-.345 2.039-2.164 3.599-4.35 3.599s-4.005-1.561-4.35-3.599H1.519c-.837 0-1.518-.664-1.518-1.481V4.345c0-1.403 1.17-2.544 2.608-2.544zm34.084 28.794c1.637 0 2.969-1.299 2.969-2.896s-1.332-2.896-2.969-2.896c-1.637 0-2.969 1.299-2.969 2.896s1.332 2.896 2.969 2.896zm-6.658-3.599h2.307l.02-.105.014-.071c.012-.055.025-.11.039-.164.003-.011.005-.023.009-.034a3.34 3.34 0 0 1 .057-.195l.019-.056a5.274 5.274 0 0 1 .122-.321l.033-.075c.016-.037.032-.072.05-.108l.038-.075.054-.103.041-.074.059-.101.043-.071.066-.101.044-.065.077-.105.04-.055.109-.135.016-.02c.043-.051.087-.1.132-.148l.043-.044.096-.099.056-.053.09-.084.062-.054.09-.077.066-.052.093-.071a1.22 1.22 0 0 1 .069-.05l.097-.068.069-.046c.034-.023.069-.044.104-.065l.068-.041c.038-.023.077-.044.116-.065l.059-.033.168-.084.013-.006c.061-.029.123-.056.186-.082l.061-.024.13-.05.075-.026.12-.039.082-.024c.039-.011.078-.023.118-.033.028-.007.056-.015.085-.021l.118-.026.087-.018c.04-.007.081-.015.122-.021l.086-.014.128-.016.082-.009.143-.011.07-.005a3.893 3.893 0 0 1 .502.005c.048.003.096.006.143.011.028.002.055.006.082.009l.128.016c.029.004.058.008.087.014.041.006.081.014.122.021l.087.018a4.084 4.084 0 0 1 .321.08l.082.024.12.039.075.026.13.05.061.024c.062.026.125.053.186.082l.013.006c.057.027.112.055.168.084l.059.033.116.065.068.041.104.065.069.046c.033.023.065.044.097.068l.069.05.093.071.066.052c.031.025.061.051.09.077l.062.054.09.084.056.053.096.099.043.044c.045.048.089.098.132.148l.016.02c.037.044.073.089.109.135l.04.055.077.105.044.065.066.101.043.071.059.101.041.074.054.103.038.075.05.108c.011.025.023.049.033.075.017.038.032.077.047.116a2.087 2.087 0 0 1 .075.205l.019.056c.02.064.039.129.056.195l.009.034c.014.055.027.109.039.164l.014.071.02.105h2.963a.263.263 0 0 0 .266-.26v-2.946h-1.124v-1.406h1.124v-1.806c0-.851-.523-1.606-1.333-1.922l-2.697-1.052H30.031v9.392zm0-10.798h9.257l-2.598-5.939a1.84 1.84 0 0 0-1.692-1.09h-4.967v7.03zM11.789 30.594c1.637 0 2.969-1.299 2.969-2.896s-1.332-2.896-2.969-2.896c-.051 0-.102.001-.153.004-1.364.067-2.488 1.038-2.756 2.309a2.812 2.812 0 0 0-.061.583c0 1.597 1.332 2.896 2.969 2.896zM1.441 22.383h1.124v1.406H1.441v3.131c0 .041.035.075.077.075h5.92l.02-.104.014-.072c.012-.054.024-.107.038-.16l.009-.038a4.26 4.26 0 0 1 .056-.193l.02-.058.046-.132.028-.072.046-.114a2.049 2.049 0 0 1 .084-.182l.038-.076.054-.102.042-.074.059-.1a2.156 2.156 0 0 1 .11-.171 1.08 1.08 0 0 1 .044-.066l.076-.104.042-.057.106-.132a3.757 3.757 0 0 1 .15-.171l.043-.045c.032-.033.063-.066.096-.098l.056-.053.089-.083.062-.055c.029-.025.059-.051.09-.075l.066-.053.092-.071.069-.05.096-.067.07-.047c.034-.023.069-.044.103-.065l.069-.042c.038-.023.077-.044.116-.065.02-.011.04-.023.061-.033.055-.029.11-.057.167-.083l.014-.007c.061-.029.123-.056.186-.082l.061-.024.13-.05.076-.026c.039-.014.079-.027.119-.039l.082-.024c.039-.011.078-.023.118-.033.028-.007.056-.015.085-.021l.118-.026.087-.018c.04-.007.081-.015.122-.021l.086-.014.128-.016.082-.009.143-.011.07-.005a3.893 3.893 0 0 1 .502.005c.048.003.096.006.143.011.028.002.055.006.082.009l.128.016c.029.004.058.008.086.014.041.006.081.014.122.021l.087.018a4.084 4.084 0 0 1 .321.08l.082.024c.04.012.08.026.119.039l.076.026.13.05.061.024c.062.026.124.053.186.082l.014.007c.056.026.112.054.167.083l.06.033.116.065.069.042c.035.021.069.042.103.065l.07.047c.032.022.065.044.096.067l.069.05.092.071c.023.017.044.035.066.053.031.025.061.05.09.076l.062.054.09.084.056.053.096.098.043.044c.045.048.089.098.132.148l.017.021c.036.044.073.088.107.134l.042.055.077.105.044.066c.023.033.044.066.066.1l.044.071.059.101.041.074.055.103a2.6 2.6 0 0 1 .087.183 2.343 2.343 0 0 1 .08.191l.028.071c.017.045.032.09.047.135l.019.055c.02.064.039.129.057.195l.007.031c.014.056.028.111.04.168l.013.069.021.106h12.453V6.106c0-.388.323-.703.721-.703h10.419c.018 0 .073 0 .107-.062s.004-.106-.006-.12l-2.255-3.3a1.18 1.18 0 0 0-.977-.51H17.784a.397.397 0 0 0-.278.112l-1.192 1.163a1.845 1.845 0 0 1-1.297.524H2.608c-.643 0-1.167.511-1.167 1.138v18.039z"/>
      <path d="M20.116 7.198h4.558c.921 0 1.67.731 1.67 1.629v15.046a.712.712 0 0 1-.721.703h-6.456a.712.712 0 0 1-.721-.703V8.827c-.001-.899.748-1.629 1.669-1.629zm-.229 15.972h5.015v-8.267h-5.015v8.267zm0-9.673h5.015V8.828a.226.226 0 0 0-.229-.223h-4.558c-.126 0-.229.1-.229.223v4.669h.001zM5.536 7.198h8.814c1.019 0 1.848.809 1.848 1.802v4.1c0 .994-.829 1.802-1.848 1.802H5.535c-1.019 0-1.848-.809-1.848-1.802V9c.001-.994.83-1.802 1.848-1.802zM5.129 13.1c0 .218.182.396.406.396h8.814a.402.402 0 0 0 .406-.396V9a.402.402 0 0 0-.406-.396H5.534A.402.402 0 0 0 5.128 9v4.1h.001z"/>
    </symbol>
    <symbol id="i-camper2" viewBox="0 0 46 32">
      <path d="M2.608 1.8h12.409c.105 0 .203-.04.278-.112L16.487.525a1.845 1.845 0 0 1 1.297-.524h18.817c.876 0 1.69.425 2.176 1.136l2.255 3.3c.32.468.349 1.067.077 1.564s-.8.805-1.377.805h-9.698v.956h4.967c1.317 0 2.501.763 3.018 1.945l2.908 6.65 2.548.994c1.36.531 2.24 1.797 2.24 3.227v6.158c0 .918-.766 1.666-1.708 1.666h-2.964c-.345 2.039-2.164 3.599-4.35 3.599s-4.005-1.561-4.35-3.599H16.14c-.345 2.039-2.164 3.599-4.35 3.599s-4.005-1.561-4.35-3.599H1.519c-.837 0-1.518-.664-1.518-1.481V4.345c0-1.403 1.17-2.544 2.608-2.544zm34.084 28.794c1.637 0 2.969-1.299 2.969-2.896s-1.332-2.896-2.969-2.896c-1.637 0-2.969 1.299-2.969 2.896s1.332 2.896 2.969 2.896zm-6.658-3.599h2.307l.02-.105.014-.071c.012-.055.025-.11.039-.164.003-.011.005-.023.009-.034a3.34 3.34 0 0 1 .057-.195l.019-.056a5.274 5.274 0 0 1 .122-.321l.033-.075c.016-.037.032-.072.05-.108l.038-.075.054-.103.041-.074.059-.101.043-.071.066-.101.044-.065.077-.105.04-.055.109-.135.016-.02c.043-.051.087-.1.132-.148l.043-.044.096-.099.056-.053.09-.084.062-.054.09-.077.066-.052.093-.071a1.22 1.22 0 0 1 .069-.05l.097-.068.069-.046c.034-.023.069-.044.104-.065l.068-.041c.038-.023.077-.044.116-.065l.059-.033.168-.084.013-.006c.061-.029.123-.056.186-.082l.061-.024.13-.05.075-.026.12-.039.082-.024c.039-.011.078-.023.118-.033.028-.007.056-.015.085-.021l.118-.026.087-.018c.04-.007.081-.015.122-.021l.086-.014.128-.016.082-.009.143-.011.07-.005a3.893 3.893 0 0 1 .502.005c.048.003.096.006.143.011.028.002.055.006.082.009l.128.016c.029.004.058.008.087.014.041.006.081.014.122.021l.087.018a4.084 4.084 0 0 1 .321.08l.082.024.12.039.075.026.13.05.061.024c.062.026.125.053.186.082l.013.006c.057.027.112.055.168.084l.059.033.116.065.068.041.104.065.069.046c.033.023.065.044.097.068l.069.05.093.071.066.052c.031.025.061.051.09.077l.062.054.09.084.056.053.096.099.043.044c.045.048.089.098.132.148l.016.02c.037.044.073.089.109.135l.04.055.077.105.044.065.066.101.043.071.059.101.041.074.054.103.038.075.05.108c.011.025.023.049.033.075.017.038.032.077.047.116a2.087 2.087 0 0 1 .075.205l.019.056c.02.064.039.129.056.195l.009.034c.014.055.027.109.039.164l.014.071.02.105h2.963a.263.263 0 0 0 .266-.26v-2.946h-1.124v-1.406h1.124v-1.806c0-.851-.523-1.606-1.333-1.922l-2.697-1.052H30.031v9.392zm0-10.798h9.257l-2.598-5.939a1.84 1.84 0 0 0-1.692-1.09h-4.967v7.03zM11.789 30.594c1.637 0 2.969-1.299 2.969-2.896s-1.332-2.896-2.969-2.896c-.051 0-.102.001-.153.004-1.364.067-2.488 1.038-2.756 2.309a2.812 2.812 0 0 0-.061.583c0 1.597 1.332 2.896 2.969 2.896zM1.441 22.383h1.124v1.406H1.441v3.131c0 .041.035.075.077.075h5.92l.02-.104.014-.072c.012-.054.024-.107.038-.16l.009-.038a4.26 4.26 0 0 1 .056-.193l.02-.058.046-.132.028-.072.046-.114a2.049 2.049 0 0 1 .084-.182l.038-.076.054-.102.042-.074.059-.1a2.156 2.156 0 0 1 .11-.171 1.08 1.08 0 0 1 .044-.066l.076-.104.042-.057.106-.132a3.757 3.757 0 0 1 .15-.171l.043-.045c.032-.033.063-.066.096-.098l.056-.053.089-.083.062-.055c.029-.025.059-.051.09-.075l.066-.053.092-.071.069-.05.096-.067.07-.047c.034-.023.069-.044.103-.065l.069-.042c.038-.023.077-.044.116-.065.02-.011.04-.023.061-.033.055-.029.11-.057.167-.083l.014-.007c.061-.029.123-.056.186-.082l.061-.024.13-.05.076-.026c.039-.014.079-.027.119-.039l.082-.024c.039-.011.078-.023.118-.033.028-.007.056-.015.085-.021l.118-.026.087-.018c.04-.007.081-.015.122-.021l.086-.014.128-.016.082-.009.143-.011.07-.005a3.893 3.893 0 0 1 .502.005c.048.003.096.006.143.011.028.002.055.006.082.009l.128.016c.029.004.058.008.086.014.041.006.081.014.122.021l.087.018a4.084 4.084 0 0 1 .321.08l.082.024c.04.012.08.026.119.039l.076.026.13.05.061.024c.062.026.124.053.186.082l.014.007c.056.026.112.054.167.083l.06.033.116.065.069.042c.035.021.069.042.103.065l.07.047c.032.022.065.044.096.067l.069.05.092.071c.023.017.044.035.066.053.031.025.061.05.09.076l.062.054.09.084.056.053.096.098.043.044c.045.048.089.098.132.148l.017.021c.036.044.073.088.107.134l.042.055.077.105.044.066c.023.033.044.066.066.1l.044.071.059.101.041.074.055.103a2.6 2.6 0 0 1 .087.183 2.343 2.343 0 0 1 .08.191l.028.071c.017.045.032.09.047.135l.019.055c.02.064.039.129.057.195l.007.031c.014.056.028.111.04.168l.013.069.021.106h12.453V6.106c0-.388.323-.703.721-.703h10.419c.018 0 .073 0 .107-.062s.004-.106-.006-.12l-2.255-3.3a1.18 1.18 0 0 0-.977-.51H17.784a.397.397 0 0 0-.278.112l-1.192 1.163a1.845 1.845 0 0 1-1.297.524H2.608c-.643 0-1.167.511-1.167 1.138v18.039z"/>
      <path d="M20.116 7.198h4.558c.921 0 1.67.731 1.67 1.629v15.046a.712.712 0 0 1-.721.703h-6.456a.712.712 0 0 1-.721-.703V8.827c-.001-.899.748-1.629 1.669-1.629zm-.229 15.972h5.015v-8.267h-5.015v8.267zm0-9.673h5.015V8.828a.226.226 0 0 0-.229-.223h-4.558c-.126 0-.229.1-.229.223l.001 4.669z"/>
    </symbol>
    <symbol id="i-booking" viewBox="0 0 32 32">
      <path stroke-linecap="round" stroke-linejoin="round" stroke-width="2.4" d="M25.333 5.333H6.666A2.667 2.667 0 0 0 3.999 8v18.667a2.667 2.667 0 0 0 2.667 2.667h18.667A2.667 2.667 0 0 0 28 26.667V8a2.667 2.667 0 0 0-2.667-2.667zM21.334 2.667V8M10.666 2.667V8M4 13.333h24"/>
    </symbol>
    <symbol id="i-hob" viewBox="0 0 43 32">
      <path stroke-width="3.2" d="M16 2.489h21.333a1.781 1.781 0 0 1 1.778 1.778v23.111a1.776 1.776 0 0 1-1.778 1.778H16m0-26.667H5.333a1.776 1.776 0 0 0-1.778 1.778v23.111a1.776 1.776 0 0 0 1.778 1.778H16m0-26.667v26.667"/>
      <path stroke-linecap="round" stroke-linejoin="round" stroke-width="3.2" d="M9.777 8.711v3.556m23.111-4.445L22.221 22.933"/>
      <path d="M11.556 17.6A1.778 1.778 0 1 0 8 17.6a1.778 1.778 0 0 0 3.556 0zM11.556 22.933a1.778 1.778 0 1 0-3.556 0 1.778 1.778 0 0 0 3.556 0z"/>
    </symbol>
    <symbol id="i-radio" viewBox="0 0 32 32">
      <path stroke-width="2.311" d="M1.185 18.963c0-5.587 0-8.381 1.736-10.116C4.656 7.111 7.45 7.111 13.037 7.111h5.926c5.587 0 8.381 0 10.116 1.736 1.736 1.735 1.736 4.529 1.736 10.116s0 8.381-1.736 10.116c-1.735 1.736-4.529 1.736-10.116 1.736h-5.926c-5.587 0-8.381 0-10.116-1.736-1.736-1.735-1.736-4.529-1.736-10.116z"/>
      <path stroke-width="2.311" d="M5.629 14.519a2.962 2.962 0 0 1 2.963-2.963h14.815a2.96 2.96 0 0 1 2.963 2.963 2.962 2.962 0 0 1-2.963 2.963H8.592a2.962 2.962 0 0 1-2.963-2.963zm5.926 8.888a2.222 2.222 0 1 1-4.443 0 2.222 2.222 0 0 1 4.443 0z"/>
      <path stroke-linecap="round" stroke-width="2.311" d="M20.444 15.259v2.222m-2.963 5.926h7.407M7.852 7.111l12.593-5.926"/>
    </symbol>
    <symbol id="i-cd" viewBox="0 0 32 32">
      <path stroke-width="2.4" d="M16 28c6.627 0 12-5.373 12-12S22.627 4 16 4 4 9.373 4 16s5.373 12 12 12z"/>
      <path stroke-linecap="round" stroke-width="2.4" d="M8.666 16a7.333 7.333 0 0 1 7.333-7.333"/>
      <path stroke-width="2.4" d="M16 19.333a3.333 3.333 0 1 0 0-6.665 3.333 3.333 0 0 0 0 6.665z"/>
    </symbol>
    <symbol id="i-conditioner" viewBox="0 0 32 32">
      <path stroke-linecap="round" stroke-linejoin="round" stroke-width="2.4" d="M28.572 1.143H3.429a2.287 2.287 0 0 0-2.285 2.285v11.429a2.287 2.287 0 0 0 2.285 2.285h25.143a2.287 2.287 0 0 0 2.285-2.285V3.428a2.287 2.287 0 0 0-2.285-2.285z"/>
      <path stroke-linecap="round" stroke-linejoin="round" stroke-width="2.4" d="M25.143 17.143v-4.571a2.287 2.287 0 0 0-2.285-2.285H9.144a2.287 2.287 0 0 0-2.285 2.285v4.571M5.714 28.572h.229a3.2 3.2 0 0 0 3.2-3.2v-2.514m17.142 5.714h-.228a3.2 3.2 0 0 1-3.2-3.2v-2.514M16 30.857v-8"/>
    </symbol>
    <symbol id="i-bed" viewBox="0 0 32 32">
      <path stroke-linecap="round" stroke-linejoin="round" stroke-width="2.24" d="M3 26v-7a4.012 4.012 0 0 1 4-4h18a4.012 4.012 0 0 1 4 4v7m-5-11H6V8.5A2.504 2.504 0 0 1 8.5 6h15A2.504 2.504 0 0 1 26 8.5V15h-2z"/>
      <path stroke-linecap="round" stroke-linejoin="round" stroke-width="2.24" d="M3 26v-.5A1.504 1.504 0 0 1 4.5 24h23a1.504 1.504 0 0 1 1.5 1.5v.5M7 15v-1a2.002 2.002 0 0 1 2-2h5a2.002 2.002 0 0 1 2 2m0 0v1m0-1a2.008 2.008 0 0 1 2-2h5a2.002 2.002 0 0 1 2 2v1"/>
    </symbol>
    <symbol id="icon-kitchen2" viewBox="0 0 32 32">
      <path stroke-linecap="round" stroke-linejoin="round" stroke-width="2.4" d="M25.333 20V4c-6.421 6.125-6.697 11.092-6.667 16h6.667zm0 0v8H24v-4M10.667 5.333V28m-4-22.667v4a4.003 4.003 0 0 0 4 4 4.003 4.003 0 0 0 4-4v-4"/>
    </symbol>
    <symbol id="icon-patrol" viewBox="0 0 32 32">
      <path d="m26.36 9.64.013-.013-4.96-4.96L20 6.08l2.813 2.813a3.324 3.324 0 0 0-1.17 5.464 3.333 3.333 0 0 0 2.357.976c.48 0 .92-.107 1.333-.28v9.613a1.335 1.335 0 0 1-2.277.943 1.335 1.335 0 0 1-.391-.943v-6a2.668 2.668 0 0 0-2.667-2.667h-1.333V6.666a2.668 2.668 0 0 0-2.667-2.667h-8a2.668 2.668 0 0 0-2.667 2.667v21.333h13.333v-10h2v6.667a3.333 3.333 0 1 0 6.667-.001V11.998c0-.92-.373-1.76-.973-2.36zM16 18v7.333H8V16h8v2zm0-4.667H8V6.666h8v6.667zm8 0a1.333 1.333 0 1 1-.002-2.665A1.333 1.333 0 0 1 24 13.333z"/>
    </symbol>
    <symbol id="i-automatic" viewBox="0 0 30 32">
      <path stroke-linecap="round" stroke-linejoin="round" stroke-width="2.667" d="M23.407 14.519h2.222a2.222 2.222 0 0 0 0-4.444h-2.222v7.407m0 5.925v5.926h1.481a2.96 2.96 0 0 0 2.963-2.963 2.962 2.962 0 0 0-2.963-2.963h-1.481zM2.667 5.63a2.962 2.962 0 0 0 5.058 2.095 2.962 2.962 0 1 0-4.19-4.19 2.962 2.962 0 0 0-.868 2.095z"/>
      <path stroke-linecap="round" stroke-linejoin="round" stroke-width="2.667" d="M5.63 8.593v4.444a1.482 1.482 0 0 0 1.482 1.482h4.444m0 0v10.37a1.482 1.482 0 0 0 1.482 1.482h4.444m-5.926-11.852h5.926"/>
    </symbol>
    <symbol id="i-people" viewBox="0 0 32 32">
      <path d="M9.067 24.133h-4.4c-.267 0-.4-.133-.533-.267s-.267-.4-.133-.667c.8-2.267 2.8-3.6 5.067-3.6 2.8 0 5.067-2.4 5.067-5.2s-2.267-5.467-5.067-5.467-5.067 2.4-5.067 5.333a5.69 5.69 0 0 0 1.333 3.6c-1.733.933-3.067 2.4-3.867 4.4-.267.933-.133 2.133.533 3.067s1.6 1.467 2.667 1.467h4.4c.8 0 1.333-.533 1.333-1.333s-.533-1.333-1.333-1.333zm-2.4-9.866c0-1.467 1.067-2.533 2.4-2.533s2.4 1.2 2.4 2.533c0 1.467-1.067 2.533-2.4 2.533s-2.4-1.2-2.4-2.533z"/>
      <path d="M30.533 21.467c-.933-2.533-2.8-4.4-4.933-5.467 1.2-1.067 1.867-2.667 1.867-4.533C27.467 8 24.8 5.2 21.6 5.2s-5.867 2.8-5.867 6.267A6.35 6.35 0 0 0 17.6 16c-2.133 1.067-4 2.933-4.933 5.467-.667 1.2-.4 2.533.267 3.6s1.867 1.6 3.067 1.6h11.067c1.2 0 2.4-.667 3.067-1.6.8-1.067.933-2.4.4-3.6zM18.267 11.6c0-2 1.467-3.6 3.2-3.6s3.2 1.6 3.2 3.6-1.467 3.6-3.2 3.6-3.2-1.733-3.2-3.6zm9.6 12c-.133.133-.4.533-.8.533H16c-.533 0-.8-.4-.8-.533-.133-.133-.4-.667-.133-1.2 1.067-2.8 3.733-4.667 6.533-4.667s5.467 1.867 6.533 4.667c.133.533-.133 1.067-.267 1.2z"/>
    </symbol>
    <symbol id="i-heart" viewBox="0 0 33 32">
      <path stroke-linecap="round" stroke-linejoin="round" stroke-width="3.067" d="M28.453 6.147a7.326 7.326 0 0 0-10.373 0L16.667 7.56l-1.413-1.413a7.333 7.333 0 0 0-10.374 0 7.333 7.333 0 0 0 0 10.374l11.787 11.787 11.787-11.787a7.345 7.345 0 0 0 2.15-5.187 7.33 7.33 0 0 0-2.15-5.187z"/>
    </symbol>
    <symbol id="i-camper3" viewBox="0 0 46 32">
      <path d="M2.608 1.8h12.409c.105 0 .203-.04.278-.112L16.487.525a1.845 1.845 0 0 1 1.297-.524h18.817c.876 0 1.69.425 2.176 1.136l2.255 3.3c.32.468.349 1.067.077 1.564s-.8.805-1.377.805h-9.698v.956h4.967c1.317 0 2.501.763 3.018 1.945l2.908 6.65 2.548.994c1.36.531 2.24 1.797 2.24 3.227v6.158c0 .918-.766 1.666-1.708 1.666h-2.964c-.345 2.039-2.164 3.599-4.35 3.599s-4.005-1.561-4.35-3.599H16.14c-.345 2.039-2.164 3.599-4.35 3.599s-4.005-1.561-4.35-3.599H1.519c-.837 0-1.518-.664-1.518-1.481V4.345c0-1.403 1.17-2.544 2.608-2.544zm34.084 28.794c1.637 0 2.969-1.299 2.969-2.896s-1.332-2.896-2.969-2.896c-1.637 0-2.969 1.299-2.969 2.896s1.332 2.896 2.969 2.896zm-6.658-3.599h2.307l.02-.105.014-.071c.012-.055.025-.11.039-.164.003-.011.005-.023.009-.034a3.34 3.34 0 0 1 .057-.195l.019-.056a5.274 5.274 0 0 1 .122-.321l.033-.075c.016-.037.032-.072.05-.108l.038-.075.054-.103.041-.074.059-.101.043-.071.066-.101.044-.065.077-.105.04-.055.109-.135.016-.02c.043-.051.087-.1.132-.148l.043-.044.096-.099.056-.053.09-.084.062-.054.09-.077.066-.052.093-.071a1.22 1.22 0 0 1 .069-.05l.097-.068.069-.046c.034-.023.069-.044.104-.065l.068-.041c.038-.023.077-.044.116-.065l.059-.033.168-.084.013-.006c.061-.029.123-.056.186-.082l.061-.024.13-.05.075-.026.12-.039.082-.024c.039-.011.078-.023.118-.033.028-.007.056-.015.085-.021l.118-.026.087-.018c.04-.007.081-.015.122-.021l.086-.014.128-.016.082-.009.143-.011.07-.005a3.893 3.893 0 0 1 .502.005c.048.003.096.006.143.011.028.002.055.006.082.009l.128.016c.029.004.058.008.087.014.041.006.081.014.122.021l.087.018a4.084 4.084 0 0 1 .321.08l.082.024.12.039.075.026.13.05.061.024c.062.026.125.053.186.082l.013.006c.057.027.112.055.168.084l.059.033.116.065.068.041.104.065.069.046c.033.023.065.044.097.068l.069.05.093.071.066.052c.031.025.061.051.09.077l.062.054.09.084.056.053.096.099.043.044c.045.048.089.098.132.148l.016.02c.037.044.073.089.109.135l.04.055.077.105.044.065.066.101.043.071.059.101.041.074.054.103.038.075.05.108c.011.025.023.049.033.075.017.038.032.077.047.116a2.087 2.087 0 0 1 .075.205l.019.056c.02.064.039.129.056.195l.009.034c.014.055.027.109.039.164l.014.071.02.105h2.963a.263.263 0 0 0 .266-.26v-2.946h-1.124v-1.406h1.124v-1.806c0-.851-.523-1.606-1.333-1.922l-2.697-1.052H30.031v9.392zm0-10.798h9.257l-2.598-5.939a1.84 1.84 0 0 0-1.692-1.09h-4.967v7.03zM11.789 30.594c1.637 0 2.969-1.299 2.969-2.896s-1.332-2.896-2.969-2.896c-.051 0-.102.001-.153.004-1.364.067-2.488 1.038-2.756 2.309a2.812 2.812 0 0 0-.061.583c0 1.597 1.332 2.896 2.969 2.896zM1.441 22.383h1.124v1.406H1.441v3.131c0 .041.035.075.077.075h5.92l.02-.104.014-.072c.012-.054.024-.107.038-.16l.009-.038a4.26 4.26 0 0 1 .056-.193l.02-.058.046-.132.028-.072.046-.114a2.049 2.049 0 0 1 .084-.182l.038-.076.054-.102.042-.074.059-.1a2.156 2.156 0 0 1 .11-.171 1.08 1.08 0 0 1 .044-.066l.076-.104.042-.057.106-.132a3.757 3.757 0 0 1 .15-.171l.043-.045c.032-.033.063-.066.096-.098l.056-.053.089-.083.062-.055c.029-.025.059-.051.09-.075l.066-.053.092-.071.069-.05.096-.067.07-.047c.034-.023.069-.044.103-.065l.069-.042c.038-.023.077-.044.116-.065.02-.011.04-.023.061-.033.055-.029.11-.057.167-.083l.014-.007c.061-.029.123-.056.186-.082l.061-.024.13-.05.076-.026c.039-.014.079-.027.119-.039l.082-.024c.039-.011.078-.023.118-.033.028-.007.056-.015.085-.021l.118-.026.087-.018c.04-.007.081-.015.122-.021l.086-.014.128-.016.082-.009.143-.011.07-.005a3.893 3.893 0 0 1 .502.005c.048.003.096.006.143.011.028.002.055.006.082.009l.128.016c.029.004.058.008.086.014.041.006.081.014.122.021l.087.018a4.084 4.084 0 0 1 .321.08l.082.024c.04.012.08.026.119.039l.076.026.13.05.061.024c.062.026.124.053.186.082l.014.007c.056.026.112.054.167.083l.06.033.116.065.069.042c.035.021.069.042.103.065l.07.047c.032.022.065.044.096.067l.069.05.092.071c.023.017.044.035.066.053.031.025.061.05.09.076l.062.054.09.084.056.053.096.098.043.044c.045.048.089.098.132.148l.017.021c.036.044.073.088.107.134l.042.055.077.105.044.066c.023.033.044.066.066.1l.044.071.059.101.041.074.055.103a2.6 2.6 0 0 1 .087.183 2.343 2.343 0 0 1 .08.191l.028.071c.017.045.032.09.047.135l.019.055c.02.064.039.129.057.195l.007.031c.014.056.028.111.04.168l.013.069.021.106h12.453V6.106c0-.388.323-.703.721-.703h10.419c.018 0 .073 0 .107-.062s.004-.106-.006-.12l-2.255-3.3a1.18 1.18 0 0 0-.977-.51H17.784a.397.397 0 0 0-.278.112l-1.192 1.163a1.845 1.845 0 0 1-1.297.524H2.608c-.643 0-1.167.511-1.167 1.138v18.039z"/>
      <path d="M5.536 7.198h8.814c1.019 0 1.848.809 1.848 1.802v4.1c0 .994-.829 1.802-1.848 1.802H5.535c-1.019 0-1.848-.809-1.848-1.802V9c.001-.994.83-1.802 1.848-1.802zM5.129 13.1c0 .218.182.396.406.396h8.814a.402.402 0 0 0 .406-.396V9a.402.402 0 0 0-.406-.396H5.534A.402.402 0 0 0 5.128 9l.001 4.1z"/>
    </symbol>
    <symbol id="i-shower" viewBox="0 0 31 32">
      <path stroke-linecap="round" stroke-linejoin="round" stroke-width="1.939" d="m5.172 5.657 3.232 3.232m9.05 0a6.403 6.403 0 0 0-9.005.045 6.398 6.398 0 0 0-.045 9.005m10.99-10.99L6.465 19.878m11.636 2.587v.013m-5.172-1.306v.013m3.879-3.892v.013m3.879-3.892v.013m-6.465 12.916v.013m7.758-7.77v.013m3.879-3.892v.013"/>
    </symbol>
    <symbol id="i-tv" viewBox="0 0 31 32">
      <path stroke-linecap="round" stroke-linejoin="round" stroke-width="1.746" d="M23.273 25.697H7.758a3.87 3.87 0 0 1-3.879-3.879v-9.697a3.87 3.87 0 0 1 3.879-3.879h15.515a3.87 3.87 0 0 1 3.879 3.879v9.697a3.87 3.87 0 0 1-3.879 3.879zM11.636 29.576h7.758M15.515 8.242l5.818-5.818M15.515 8.242 9.697 2.424"/>
    </symbol>
    <symbol id="i-kitchen" viewBox="0 0 32 32">
      <path stroke-linecap="round" stroke-linejoin="round" stroke-width="1.746" d="M25.051 19.879V4.364c-6.227 5.94-6.494 10.756-6.465 15.515h6.465zm0 0v7.758h-1.293v-3.879M10.828 5.657v21.98M6.95 5.657v3.879a3.882 3.882 0 0 0 3.879 3.879 3.882 3.882 0 0 0 3.879-3.879V5.657"/>
    </symbol>
    <symbol id="i-automatic2" viewBox="0 0 32 32">
      <path stroke-linecap="round" stroke-linejoin="round" stroke-width="1.746" d="M22.465 14.707h1.939a1.937 1.937 0 0 0 1.939-1.939 1.937 1.937 0 0 0-1.939-1.939h-1.939v6.465m0 5.171v5.172h1.293a2.588 2.588 0 0 0 2.585-2.586 2.588 2.588 0 0 0-2.585-2.585h-1.293zM4.364 6.949a2.582 2.582 0 0 0 2.585 2.585 2.582 2.582 0 0 0 2.585-2.585 2.582 2.582 0 0 0-2.585-2.585 2.582 2.582 0 0 0-2.585 2.585zM6.95 9.535v3.879a1.295 1.295 0 0 0 1.293 1.293h3.879m-.001 0v9.05a1.295 1.295 0 0 0 1.293 1.293h3.879m-5.172-10.343h5.172"/>
    </symbol>
    <symbol id="i-air" viewBox="0 0 31 32">
      <path d="M15.082 5.139c-1.31 0-2.58.466-3.593 1.318S9.782 8.494 9.524 9.812l-.101.523a.913.913 0 0 0 .358.946.849.849 0 0 0 .669.137.865.865 0 0 0 .561-.397.901.901 0 0 0 .124-.333l.103-.521c.193-.977.733-1.845 1.516-2.437a3.85 3.85 0 0 1 5.234.534 4.086 4.086 0 0 1-.131 5.544 3.875 3.875 0 0 1-2.777 1.181H2.425c-.231 0-.453.094-.617.262a.907.907 0 0 0 0 1.266.862.862 0 0 0 .617.262H15.08c1.48-.037 2.887-.666 3.922-1.753s1.613-2.545 1.614-4.063c0-1.519-.578-2.977-1.611-4.064s-2.441-1.717-3.921-1.755zm10.033 8.056c-1.157 0-2.267.472-3.086 1.311s-1.278 1.978-1.278 3.165c0 .237.092.465.256.633s.386.262.617.262c.231 0 .453-.094.617-.262s.256-.396.256-.633c0-.531.154-1.05.441-1.492s.697-.786 1.175-.989a2.565 2.565 0 0 1 2.854.582c.366.376.615.854.716 1.375s.049 1.061-.149 1.552c-.198.491-.534.91-.964 1.205s-.937.453-1.455.453H2.424c-.231 0-.453.094-.617.262a.907.907 0 0 0 0 1.266.862.862 0 0 0 .617.262h17.018c.579.001 1.133.238 1.542.659s.637.99.636 1.584c-.001.593-.232 1.162-.642 1.581s-.965.653-1.544.652c-.521 0-1.026-.189-1.424-.533s-.665-.823-.752-1.35l-.009-.054c-.016-.119-.055-.233-.114-.336a.88.88 0 0 0-.548-.414.846.846 0 0 0-.671.115.908.908 0 0 0-.389.93l.009.054c.155.945.632 1.803 1.345 2.422s1.618.958 2.552.958c1.043 0 2.043-.423 2.781-1.179s1.154-1.78 1.155-2.849c0-.829-.244-1.599-.662-2.238h2.407c1.157 0 2.267-.472 3.086-1.311s1.278-1.978 1.278-3.165-.46-2.325-1.278-3.165a4.31 4.31 0 0 0-3.086-1.311z"/>
      <path d="m15.082 5.139.125-4.847-.063-.002h-.063l.001 4.848zM9.525 9.812l-4.759-.93-.001.008 4.76.922zm-.101.523 4.725 1.088.019-.083.016-.083-4.76-.922zm1.71.35-4.756-.94-.017.086-.014.087 4.787.768zm.103-.52zm7.769.791h4.848v-.012l-4.849.012zm-3.927 4.03v4.848h.002l-.002-4.848zm-13.527.895zm13.527.895v4.848h.061l.061-.002-.122-4.847zm7.418.895zm-20.945 3.58zm17.891.895.01-4.848h-.01v4.849zm-.009 4.476.01-4.848h-.014l.004 4.849zm-2.177-1.883-4.786.778.001.008.001.008 4.783-.793zm-.009-.054-4.807.635.009.071.012.071 4.786-.778zm-1.721.294 4.786-.778-.011-.07-.013-.069-4.761.917zm.009.053-4.786.778.001.008 4.784-.786zm3.898 3.38.002-4.848h-.003l.001 4.849zm3.936-4.028 4.848.008v-.008h-4.849zm-.662-2.238v-4.848h-8.955l4.895 7.499 4.06-2.65zM15.081.291a10.434 10.434 0 0 0-6.712 2.455l6.24 7.422a.735.735 0 0 1 .474-.18L15.081.291zM8.37 2.746a10.689 10.689 0 0 0-3.603 6.136l9.517 1.859a.995.995 0 0 1 .326-.573L8.37 2.746zM4.765 8.89l-.101.523 9.52 1.844.101-.523-9.52-1.844zm-.066.357a5.777 5.777 0 0 0-.068 2.242l9.565-1.596a3.917 3.917 0 0 1-.047 1.529l-9.45-2.175zm-.069 2.242c.124.744.394 1.461.799 2.107l8.219-5.146c.278.444.462.935.547 1.442L4.63 11.488zm.799 2.108a5.765 5.765 0 0 0 1.572 1.656l5.559-7.945c.441.309.809.7 1.087 1.144l-8.219 5.146zm1.572 1.655a5.707 5.707 0 0 0 2.126.915l1.948-9.499c.538.11 1.043.33 1.485.639l-5.559 7.945zm2.127.916a5.688 5.688 0 0 0 2.328-.008L9.444 6.674a3.988 3.988 0 0 1 1.632-.005l-1.948 9.499zm2.328-.008a5.724 5.724 0 0 0 2.12-.929L7.965 7.323a3.977 3.977 0 0 1 1.48-.648l2.012 9.486zm2.119-.929a5.718 5.718 0 0 0 1.561-1.665L6.884 8.473c.275-.446.64-.839 1.079-1.151l5.611 7.908zm1.561-1.666c.4-.649.666-1.367.785-2.112L6.346 9.918c.081-.508.263-1 .538-1.445l8.252 5.092zm.755-1.939.103-.521-9.513-1.88-.103.521 9.513 1.881zm.102-.519a.817.817 0 0 1-.315.487L9.826 3.862A8.886 8.886 0 0 0 6.48 9.223l9.512 1.884zm-.314.487a.998.998 0 0 1-.7.191l.983-9.647a8.702 8.702 0 0 0-6.135 1.724l5.852 7.732zm-.7.191a.965.965 0 0 1-.622-.31l7.261-6.427a8.738 8.738 0 0 0-5.657-2.91l-.983 9.647zm-.622-.311a.76.76 0 0 1-.199-.507l9.697-.023a8.924 8.924 0 0 0-2.237-5.897l-7.261 6.427zm-.199-.518c0-.178.068-.373.226-.535l6.945 6.768a8.932 8.932 0 0 0 2.526-6.233h-9.697zm.226-.535a.97.97 0 0 1 .693-.284l.004 9.697a8.727 8.727 0 0 0 6.247-2.645l-6.945-6.768zm.695-.284H2.424v9.697h12.655v-9.697zm-12.655 0a5.711 5.711 0 0 0-4.089 1.726l6.943 6.769a3.99 3.99 0 0 1-2.854 1.202v-9.697zm-4.088 1.726a5.755 5.755 0 0 0-1.633 4.018H6.4c0 1.009-.39 2.002-1.121 2.752l-6.943-6.769zm-1.633 4.018c0 1.484.574 2.932 1.633 4.018l6.943-6.769A3.938 3.938 0 0 1 6.4 15.882h-9.697zm1.633 4.017a5.711 5.711 0 0 0 4.089 1.726v-9.697c1.095 0 2.119.447 2.854 1.202l-6.943 6.769zm4.088 1.726h12.655v-9.697H2.424v9.697zm12.777-.001a10.456 10.456 0 0 0 7.312-3.257l-7.024-6.685a.766.766 0 0 1-.531.249l.244 9.694zm7.312-3.258c1.903-2 2.949-4.659 2.95-7.404l-9.697-.003c0 .292-.113.549-.278.722l7.024 6.685zm2.95-7.404a10.747 10.747 0 0 0-2.946-7.406l-7.028 6.681c.165.174.277.431.277.723l9.697.003zm-2.946-7.407a10.459 10.459 0 0 0-7.31-3.262l-.25 9.694c.176.005.37.079.531.249l7.028-6.681zm2.598 4.793a9.158 9.158 0 0 0-6.557 2.775l6.943 6.769a.54.54 0 0 1-.386.153V8.347zm-6.557 2.774a9.38 9.38 0 0 0-2.655 6.549H25.6c0 .06-.022.141-.099.22l-6.943-6.769zm-2.655 6.55c0 1.484.574 2.932 1.633 4.018l6.943-6.769a3.938 3.938 0 0 1 1.121 2.752h-9.697zm1.633 4.018a5.711 5.711 0 0 0 4.089 1.726v-9.697c1.095 0 2.119.447 2.854 1.202l-6.943 6.769zm4.088 1.726a5.711 5.711 0 0 0 4.089-1.726L18.77 14.92a3.986 3.986 0 0 1 2.854-1.202v9.697zm4.089-1.726a5.755 5.755 0 0 0 1.633-4.018h-9.697c0-1.009.39-2.002 1.121-2.752l6.943 6.769zm1.633-4.018c0 .401-.115.802-.345 1.155l-8.125-5.293a7.58 7.58 0 0 0-1.227 4.138h9.697zm-.345 1.155c-.23.353-.57.648-.992.827l-3.792-8.925a7.48 7.48 0 0 0-3.342 2.805L27 18.826zm-.992.826c-.423.18-.895.229-1.352.135l1.938-9.501a7.411 7.411 0 0 0-4.378.441l3.792 8.925zm-1.352.136a2.256 2.256 0 0 1-1.162-.631l6.943-6.769a7.45 7.45 0 0 0-3.843-2.101l-1.938 9.501zm-1.162-.631a2.143 2.143 0 0 1-.572-1.087l9.52-1.846a7.559 7.559 0 0 0-2.005-3.837l-6.943 6.769zm-.572-1.087a2.1 2.1 0 0 1 .115-1.187l8.991 3.631a7.594 7.594 0 0 0 .413-4.29l-9.52 1.846zm.115-1.187c.154-.381.422-.727.791-.979l5.482 7.999a7.515 7.515 0 0 0 2.719-3.389l-8.991-3.631zm.791-.979c.37-.253.817-.396 1.286-.396v9.697a7.412 7.412 0 0 0 4.195-1.302l-5.482-7.999zm1.286-.396H2.424v9.697h22.691v-9.697zm-22.691 0a5.711 5.711 0 0 0-4.089 1.726l6.943 6.769a3.99 3.99 0 0 1-2.854 1.202v-9.697zm-4.088 1.726a5.755 5.755 0 0 0-1.633 4.018H6.4c0 1.009-.39 2.001-1.121 2.752l-6.943-6.769zm-1.633 4.017c0 1.484.574 2.932 1.633 4.018L5.279 18.5A3.938 3.938 0 0 1 6.4 21.252h-9.697zm1.633 4.018a5.711 5.711 0 0 0 4.089 1.726v-9.697c1.095 0 2.119.447 2.854 1.202l-6.943 6.769zm4.088 1.726h17.018v-9.697H2.424v9.697zm17.009 0a2.699 2.699 0 0 1-1.927-.812l6.956-6.756a7.002 7.002 0 0 0-5.01-2.129l-.02 9.697zm-1.927-.812a2.577 2.577 0 0 1-.734-1.804l9.697.019a7.117 7.117 0 0 0-2.006-4.971l-6.957 6.756zm-.735-1.804a2.578 2.578 0 0 1 .742-1.801l6.929 6.783a7.117 7.117 0 0 0 2.026-4.963l-9.697-.019zm.742-1.801a2.696 2.696 0 0 1 1.931-.805l-.02 9.697a7.004 7.004 0 0 0 5.019-2.109l-6.929-6.783zm1.917-.805c.659 0 1.279.239 1.752.649l-6.345 7.333a7.022 7.022 0 0 0 4.6 1.715l-.007-9.697zm1.752.649c.47.407.763.951.858 1.523l-9.566 1.587a7.126 7.126 0 0 0 2.363 4.223l6.345-7.333zm.861 1.539-.009-.054-9.572 1.555.009.054 9.572-1.555zm.012.089a5.776 5.776 0 0 0-.722-2.126l-8.396 4.851a3.929 3.929 0 0 1-.494-1.454l9.613-1.27zm-.722-2.127a5.742 5.742 0 0 0-1.505-1.705l-5.851 7.733a3.958 3.958 0 0 1-1.04-1.177l8.396-4.851zm-1.505-1.704a5.716 5.716 0 0 0-2.082-.992l-2.316 9.416a3.984 3.984 0 0 1-1.453-.692l5.851-7.733zm-2.083-.992a5.705 5.705 0 0 0-2.32-.084l1.631 9.559a4 4 0 0 1-1.627-.059l2.316-9.416zm-2.32-.084a5.718 5.718 0 0 0-2.152.842l5.286 8.129a4 4 0 0 1-1.504.588l-1.631-9.559zm-2.152.842a5.72 5.72 0 0 0-1.626 1.599l8.038 5.425a3.979 3.979 0 0 1-1.125 1.106l-5.286-8.129zm-1.626 1.598a5.758 5.758 0 0 0-.87 2.075l9.503 1.929a3.94 3.94 0 0 1-.596 1.421l-8.038-5.425zm-.869 2.075a5.748 5.748 0 0 0-.011 2.237l9.522-1.833a3.933 3.933 0 0 1-.008 1.525l-9.503-1.929zm-.036 2.098.009.054 9.572-1.555-.009-.054-9.572 1.555zm.01.062a8.928 8.928 0 0 0 2.953 5.299l6.353-7.326c.155.134.237.3.262.455l-9.569 1.571zm2.953 5.299a8.735 8.735 0 0 0 5.73 2.143l-.002-9.697c.247 0 .467.09.625.227l-6.353 7.326zm5.727 2.144a8.736 8.736 0 0 0 6.251-2.639l-6.935-6.777a.967.967 0 0 1 .689-.281l-.004 9.697zm6.25-2.639a8.934 8.934 0 0 0 2.536-6.229l-9.697-.017a.76.76 0 0 1 .225-.531l6.935 6.777zm2.536-6.238c0-1.793-.531-3.48-1.45-4.888l-8.12 5.3a.764.764 0 0 1-.127-.412h9.697zm-5.51 2.611h2.407v-9.697h-2.407v9.697zm2.407 0a9.158 9.158 0 0 0 6.557-2.775l-6.943-6.769a.54.54 0 0 1 .386-.153v9.697zm6.557-2.775a9.38 9.38 0 0 0 2.655-6.549H24.63c0-.06.022-.141.099-.22l6.943 6.769zm2.655-6.549a9.379 9.379 0 0 0-2.655-6.549l-6.943 6.769a.316.316 0 0 1-.099-.22h9.697zm-2.655-6.55a9.158 9.158 0 0 0-6.557-2.775v9.697a.54.54 0 0 1-.386-.153l6.943-6.769z"/>
    </symbol>
    <symbol id="i-map_pin" viewBox="0 0 29 32">
      <path stroke-linecap="round" stroke-linejoin="round" stroke-width="2.4" d="M26.4 13.333c0 9.333-12 17.333-12 17.333s-12-8-12-17.333a12.003 12.003 0 0 1 12-12 12.003 12.003 0 0 1 12 12z"/>
      <path stroke-linecap="round" stroke-linejoin="round" stroke-width="2.4" d="M14.4 17.333a4 4 0 1 0 0-8 4 4 0 0 0 0 8z"/>
    </symbol>
  </defs>
</svg>
