<svg xmlns="http://www.w3.org/2000/svg" aria-hidden="true" style="position:absolute;width:0;height:0;overflow:hidden">
  <defs>
    <symbol id="icon-ac" viewBox="0 0 38 32">
      <path d="M18.629.384c-1.729 0-3.405.615-4.742 1.739s-2.254 2.689-2.594 4.428l-.134.69a1.204 1.204 0 0 0 .472 1.248 1.11 1.11 0 0 0 .882.181 1.156 1.156 0 0 0 .74-.525c.083-.134.138-.284.163-.44l.136-.688c.255-1.289.968-2.436 2.001-3.217s2.31-1.142 3.587-1.012c1.277.13 2.461.741 3.323 1.716a5.397 5.397 0 0 1-.173 7.318 5.126 5.126 0 0 1-3.666 1.559H1.92c-.306 0-.599.125-.815.346s-.337.522-.337.835c0 .313.121.614.337.835s.509.346.815.346h16.704c1.954-.049 3.811-.88 5.177-2.314s2.13-3.359 2.13-5.364-.763-3.93-2.127-5.365S20.583.433 18.629.383zm13.243 10.634c-1.528 0-2.993.622-4.073 1.73s-1.687 2.611-1.687 4.177c0 .313.121.614.337.835s.509.346.815.346c.306 0 .599-.125.815-.346s.337-.522.337-.835c0-.701.203-1.386.582-1.969s.92-1.037 1.551-1.306c.631-.268 1.326-.338 1.997-.202s1.286.474 1.77.97c.483.496.812 1.127.946 1.815s.065 1.4-.197 2.048c-.262.648-.705 1.201-1.273 1.591s-1.236.597-1.92.597H1.92c-.306 0-.599.125-.815.346s-.337.522-.337.835c0 .313.121.614.337.835s.509.346.815.346h22.464c.764.002 1.496.314 2.035.869s.841 1.307.839 2.09c-.002.783-.306 1.534-.848 2.087s-1.274.863-2.038.861c-.688 0-1.354-.249-1.88-.704s-.878-1.086-.993-1.782l-.012-.071a1.2 1.2 0 0 0-.458-.792 1.137 1.137 0 0 0-.873-.215 1.16 1.16 0 0 0-.758.493 1.204 1.204 0 0 0-.183.902l.012.071c.205 1.247.834 2.38 1.776 3.197s2.136 1.265 3.369 1.265c1.376.001 2.696-.559 3.67-1.556s1.523-2.35 1.525-3.761c0-1.094-.323-2.11-.873-2.954h3.177c1.528 0 2.993-.622 4.073-1.73s1.687-2.61 1.687-4.177-.607-3.069-1.687-4.177a5.686 5.686 0 0 0-4.073-1.73z"/>
      <path d="m18.629.384.165-6.398-.083-.002h-.083l.001 6.4zm-7.336 6.168L5.012 5.325l-.002.01 6.283 1.217zm-.134.69 6.237 1.435.025-.109.021-.11-6.283-1.217zm2.258.463L7.138 6.464l-.022.114-.018.114 6.319 1.013zm.136-.688zm10.255 1.045h6.4v-.015l-6.4.015zm-5.184 5.319v6.4h.003l-.003-6.4zM.768 14.562zm17.856 1.182v6.4h.08l.08-.002-.161-6.398zm9.792 1.182zM.768 21.652zm23.616 1.181.013-6.4h-.013v6.4zm-.011 5.908.013-6.4h-.018l.005 6.4zM21.5 26.255l-6.317 1.027.002.01.002.01 6.314-1.047zm-.012-.071-6.345.838.012.094.015.094 6.317-1.027zm-2.272.388 6.317-1.027-.015-.092-.018-.092-6.285 1.21zm.012.071-6.317 1.026.002.011 6.315-1.037zm5.145 4.461.003-6.4h-.004l.001 6.4zm5.195-5.317 6.4.011v-.011h-6.4zm-.873-2.954v-6.4h-11.82l6.461 9.898 5.359-3.498zM18.627-6.016a13.771 13.771 0 0 0-8.86 3.241l8.237 9.797a.97.97 0 0 1 .625-.238l-.003-12.8zM9.768-2.775a14.108 14.108 0 0 0-4.756 8.1l12.563 2.454c.064-.326.23-.587.431-.756L9.769-2.774zM5.01 5.335l-.134.69 12.567 2.434.134-.69L5.01 5.335zm-.088.471a7.603 7.603 0 0 0-.09 2.96l12.625-2.107c.112.67.091 1.355-.061 2.018L4.922 5.806zm-.09 2.96c.164.982.52 1.929 1.054 2.782l10.849-6.792c.367.586.61 1.234.722 1.904L4.832 8.767zm1.054 2.782a7.565 7.565 0 0 0 2.076 2.185L15.3 3.245a5.233 5.233 0 0 1 1.435 1.51L5.886 11.547zm2.076 2.185c.838.587 1.792 1 2.806 1.208L13.34 2.402a5.264 5.264 0 0 1 1.96.843L7.962 13.733zm2.806 1.208a7.52 7.52 0 0 0 3.073-.01L11.185 2.409a5.268 5.268 0 0 1 2.155-.007l-2.572 12.539zm3.073-.01a7.537 7.537 0 0 0 2.798-1.227L9.232 3.265a5.263 5.263 0 0 1 1.954-.856l2.656 12.522zm2.798-1.227a7.584 7.584 0 0 0 2.061-2.198L7.807 4.784a5.228 5.228 0 0 1 1.425-1.519l7.407 10.439zm2.061-2.198a7.596 7.596 0 0 0 1.036-2.788L7.097 6.692c.107-.67.347-1.319.71-1.908L18.7 11.506zm.996-2.56.136-.688L7.275 5.776l-.136.688 12.557 2.482zm.135-.685a1.072 1.072 0 0 1-.415.643L11.692-1.303a11.724 11.724 0 0 0-4.416 7.077l12.556 2.487zm-.415.642a1.315 1.315 0 0 1-.924.252l1.297-12.734a11.483 11.483 0 0 0-8.098 2.276l7.724 10.207zm-.924.253a1.266 1.266 0 0 1-.821-.41L27.255.262a11.54 11.54 0 0 0-7.467-3.841L18.491 9.155zm-.821-.41a1.01 1.01 0 0 1-.263-.669l12.8-.031A11.791 11.791 0 0 0 27.256.262l-9.584 8.484zm-.263-.684c0-.235.089-.492.298-.706l9.167 8.934a11.79 11.79 0 0 0 3.335-8.227h-12.8zm.298-.707c.214-.22.54-.374.915-.374l.006 12.8a11.518 11.518 0 0 0 8.246-3.492l-9.167-8.934zm.918-.374H1.92v12.8h16.704v-12.8zm-16.704 0a7.537 7.537 0 0 0-5.397 2.278l9.165 8.936a5.262 5.262 0 0 1-3.768 1.586v-12.8zm-5.397 2.278a7.596 7.596 0 0 0-2.155 5.303h12.8a5.205 5.205 0 0 1-1.48 3.632l-9.165-8.936zm-2.155 5.303c0 1.959.757 3.87 2.155 5.303l9.165-8.936a5.2 5.2 0 0 1 1.48 3.632h-12.8zm2.155 5.304a7.537 7.537 0 0 0 5.397 2.278v-12.8c1.445 0 2.797.59 3.768 1.586l-9.165 8.936zm5.397 2.278h16.704v-12.8H1.92v12.8zm16.865-.002a13.802 13.802 0 0 0 9.652-4.3l-9.272-8.824a1.004 1.004 0 0 1-.701.328l.322 12.796zm9.652-4.3a14.187 14.187 0 0 0 3.894-9.774l-12.8-.004c0 .385-.148.725-.366.954l9.272 8.824zm3.894-9.774a14.184 14.184 0 0 0-3.888-9.776l-9.278 8.819c.218.229.366.569.366.954l12.8.004zm-3.888-9.776a13.805 13.805 0 0 0-9.649-4.306l-.33 12.796c.233.006.489.105.701.329l9.278-8.819zm3.429 6.326a12.085 12.085 0 0 0-8.655 3.663l9.165 8.936a.713.713 0 0 1-.509.202v-12.8zM23.217 8.28a12.386 12.386 0 0 0-3.505 8.645h12.8a.415.415 0 0 1-.131.29l-9.165-8.936zm-3.505 8.646c0 1.959.757 3.87 2.155 5.303l9.165-8.936a5.2 5.2 0 0 1 1.48 3.632h-12.8zm2.155 5.303a7.537 7.537 0 0 0 5.397 2.278v-12.8c1.445 0 2.797.59 3.768 1.586l-9.165 8.936zm5.397 2.278a7.537 7.537 0 0 0 5.397-2.278l-9.165-8.936a5.262 5.262 0 0 1 3.768-1.586v12.8zm5.397-2.278a7.596 7.596 0 0 0 2.155-5.303h-12.8c0-1.332.515-2.642 1.48-3.632l9.165 8.936zm2.155-5.303a2.79 2.79 0 0 1-.455 1.524l-10.725-6.987a10.013 10.013 0 0 0-1.62 5.463h12.8zm-.455 1.524a2.92 2.92 0 0 1-1.309 1.091L28.047 7.76a9.878 9.878 0 0 0-4.411 3.703l10.725 6.987zm-1.309 1.091a3.026 3.026 0 0 1-1.785.179l2.559-12.542a9.78 9.78 0 0 0-5.779.582l5.005 11.781zm-1.785.179a2.975 2.975 0 0 1-1.534-.833l9.165-8.936a9.826 9.826 0 0 0-5.073-2.773L31.266 19.72zm-1.534-.833a2.83 2.83 0 0 1-.755-1.434l12.566-2.437a9.975 9.975 0 0 0-2.646-5.064l-9.165 8.936zm-.754-1.434a2.77 2.77 0 0 1 .152-1.567L41 20.679c.726-1.797.913-3.766.545-5.663l-12.566 2.437zm.152-1.568a2.877 2.877 0 0 1 1.043-1.292l7.236 10.558a9.922 9.922 0 0 0 3.589-4.473L29.13 15.885zm1.043-1.291a3.008 3.008 0 0 1 1.698-.523v12.8a9.798 9.798 0 0 0 5.538-1.718l-7.236-10.558zm1.698-.524H1.92v12.8h29.952v-12.8zm-29.952 0a7.537 7.537 0 0 0-5.397 2.278l9.165 8.936A5.262 5.262 0 0 1 1.92 26.87v-12.8zm-5.397 2.278a7.594 7.594 0 0 0-2.155 5.303h12.8a5.205 5.205 0 0 1-1.48 3.632l-9.165-8.936zm-2.155 5.304c0 1.959.757 3.87 2.155 5.303l9.165-8.936a5.2 5.2 0 0 1 1.48 3.632h-12.8zm2.155 5.303a7.537 7.537 0 0 0 5.397 2.278v-12.8c1.445 0 2.797.59 3.768 1.586l-9.165 8.936zm5.397 2.278h22.464v-12.8H1.92v12.8zm22.451 0a3.554 3.554 0 0 1-2.543-1.072l9.183-8.917a9.247 9.247 0 0 0-6.613-2.811l-.026 12.8zm-2.543-1.072a3.405 3.405 0 0 1-.969-2.381l12.8.025a9.395 9.395 0 0 0-2.648-6.562l-9.183 8.917zm-.97-2.381a3.407 3.407 0 0 1 .979-2.377l9.147 8.954a9.396 9.396 0 0 0 2.674-6.552l-12.8-.025zm.979-2.377a3.558 3.558 0 0 1 2.548-1.062l-.026 12.8a9.246 9.246 0 0 0 6.625-2.784l-9.147-8.954zm2.531-1.062a3.529 3.529 0 0 1 2.312.856l-8.375 9.68a9.27 9.27 0 0 0 6.072 2.264l-.009-12.8zm2.312.856a3.391 3.391 0 0 1 1.133 2.011l-12.627 2.095a9.41 9.41 0 0 0 3.119 5.575l8.375-9.68zm1.137 2.031-.012-.071-12.634 2.053.012.071 12.634-2.053zm.016.118a7.594 7.594 0 0 0-.954-2.807l-11.083 6.403a5.212 5.212 0 0 1-.653-1.92l12.69-1.677zm-.954-2.807a7.575 7.575 0 0 0-1.987-2.25l-7.724 10.207a5.232 5.232 0 0 1-1.373-1.554l11.083-6.403zm-1.987-2.251a7.538 7.538 0 0 0-2.748-1.309l-3.058 12.429a5.272 5.272 0 0 1-1.918-.913l7.724-10.207zm-2.748-1.309a7.529 7.529 0 0 0-3.063-.111l2.152 12.618a5.267 5.267 0 0 1-2.147-.078l3.058-12.429zm-3.063-.111a7.546 7.546 0 0 0-2.841 1.111l6.978 10.731a5.263 5.263 0 0 1-1.985.776l-2.152-12.618zm-2.84 1.112a7.568 7.568 0 0 0-2.146 2.11l10.61 7.161a5.257 5.257 0 0 1-1.485 1.46L16.242 19.98zm-2.147 2.11a7.608 7.608 0 0 0-1.148 2.739l12.544 2.546a5.206 5.206 0 0 1-.787 1.876l-10.61-7.161zm-1.147 2.739a7.603 7.603 0 0 0-.015 2.953l12.569-2.42a5.185 5.185 0 0 1-.01 2.013l-12.544-2.546zm-.048 2.769.012.071 12.634-2.053-.012-.071-12.634 2.053zm.013.082c.443 2.7 1.81 5.184 3.898 6.995l8.386-9.67c.205.177.313.396.346.601L12.911 27.68zm3.899 6.995a11.538 11.538 0 0 0 7.563 2.829l-.003-12.8c.326 0 .617.119.825.3l-8.386 9.67zm7.559 2.829a11.531 11.531 0 0 0 8.251-3.483l-9.155-8.946c.213-.218.537-.371.91-.371l-.006 12.8zm8.25-3.483a11.801 11.801 0 0 0 3.348-8.223l-12.8-.022c0-.233.089-.488.297-.701l9.155 8.946zm3.348-8.234c0-2.367-.701-4.594-1.914-6.452l-10.719 6.996a1.009 1.009 0 0 1-.167-.544h12.8zm-7.273 3.446h3.177v-12.8h-3.177v12.8zm3.177 0c3.278 0 6.388-1.337 8.655-3.663l-9.165-8.936a.717.717 0 0 1 .509-.202v12.8zm8.656-3.662a12.384 12.384 0 0 0 3.505-8.645h-12.8c0-.079.029-.186.131-.291l9.165 8.936zm3.504-8.645c0-3.213-1.243-6.325-3.505-8.645l-9.165 8.936a.415.415 0 0 1-.131-.29h12.8zM40.528 8.28a12.088 12.088 0 0 0-8.655-3.662v12.8a.71.71 0 0 1-.509-.202l9.165-8.936z"/>
    </symbol>
  </defs>
</svg>
